<?xml version="1.0" encoding="utf-8"?>
<svg viewBox="0 0 1087 825" width="1087" height="825" style="shape-rendering:geometricPrecision; text-rendering:geometricPrecision; image-rendering:optimizeQuality; fill-rule:evenodd; clip-rule:evenodd" xmlns="http://www.w3.org/2000/svg">
  <defs>
    <style type="text/css">
   
    .fil0 {fill:#BDBFC1}
   
  </style>
  </defs>
  <g id="Camada_x0020_1">
    <path class="fil0" d="M890 528c-38,0 -69,-31 -69,-69 0,-38 31,-69 69,-69 38,0 69,31 69,69 0,38 -31,69 -69,69zm-661 -247l57 -134c7,-17 34,-35 53,-35l410 0c19,0 45,17 52,35l56 134 -628 0zm498 183l-12 28c-12,28 -47,52 -78,52l-187 0c-31,0 -66,-23 -78,-52l-12 -28c-12,-28 3,-52 34,-52l300 0c31,0 46,23 34,52zm-531 64c-38,0 -69,-31 -69,-69 0,-38 31,-69 69,-69 38,0 69,31 69,69 0,38 -31,69 -69,69zm871 -303c0,0 -56,0 -94,0 -6,0 -11,3 -16,7l-53 -128c-25,-59 -92,-104 -156,-104l-410 0c-64,0 -131,44 -156,103l-55 129c-4,-4 -9,-7 -15,-7 -37,0 -94,0 -94,0 0,0 -19,0 -19,19 0,19 19,56 19,56 0,0 8,19 26,19 5,0 14,0 24,0 -16,20 -25,46 -23,75l19 226c2,25 13,49 29,68 0,2 -1,5 -1,7l0 94c0,21 17,37 37,37l94 0c21,0 37,-17 37,-37l0 -56 562 0 0 56c0,21 17,37 37,37l94 0c21,0 37,-17 37,-37l0 -94c0,-2 0,-5 -1,-7 16,-19 27,-42 29,-68l19 -226c2,-29 -6,-55 -23,-75 11,0 21,0 25,0 19,0 25,-19 25,-19 0,0 19,-37 19,-56 0,-19 -19,-19 -19,-19z" style="fill: rgb(67, 69, 97);"/>
  </g>
</svg>