<?xml version="1.0" encoding="utf-8"?>
<svg viewBox="0 0 1271 1398" width="1271" height="1398" style="shape-rendering:geometricPrecision; text-rendering:geometricPrecision; image-rendering:optimizeQuality; fill-rule:evenodd; clip-rule:evenodd" xmlns="http://www.w3.org/2000/svg">
  <defs>
    <style type="text/css">
   
    .fil0 {fill:#434561}
   
  </style>
  </defs>
  <g id="Camada_x0020_1">
    <path class="fil0" d="M636 763c176,0 318,-250 318,-432 0,-182 -142,-330 -318,-330 -176,0 -318,148 -318,330 0,183 142,432 318,432zm542 232c-60,-94 -368,-168 -542,-168 -173,0 -481,74 -542,168 -62,97 -87,229 -94,310 -1,14 7,26 25,32 62,19 266,62 611,62 344,0 549,-43 611,-62 18,-6 26,-18 25,-32 -7,-81 -32,-213 -94,-310z" style=""/>
  </g>
</svg>