<?xml version="1.0" encoding="UTF-8"?>
<!DOCTYPE svg PUBLIC "-//W3C//DTD SVG 1.1//EN" "http://www.w3.org/Graphics/SVG/1.1/DTD/svg11.dtd">
<!-- Creator: CorelDRAW X6 -->
<svg xmlns="http://www.w3.org/2000/svg" xml:space="preserve" width="30mm" height="37.6832mm" version="1.1" style="shape-rendering:geometricPrecision; text-rendering:geometricPrecision; image-rendering:optimizeQuality; fill-rule:evenodd; clip-rule:evenodd"
viewBox="0 0 520 653"
 xmlns:xlink="http://www.w3.org/1999/xlink">
 <defs>
  <style type="text/css">
   <![CDATA[
    .fil0 {fill:#BDBFC1}
   ]]>
  </style>
 </defs>
 <g id="Camada_x0020_1">
  <metadata id="CorelCorpID_0Corel-Layer"/>
  <g id="_884962720">
   <path class="fil0" d="M386 52c-33,-32 -79,-52 -129,-52 -51,0 -97,20 -129,52 -33,32 -53,75 -53,122l0 48 72 0 0 -48c0,-31 13,-58 33,-77 20,-20 47,-31 77,-31 30,0 57,12 77,31 20,20 33,47 33,77l0 48 72 0 0 -48c0,-47 -20,-91 -53,-122zm-166 -6c-45,12 -82,46 -95,90 -1,4 -5,6 -9,6 -1,0 -2,0 -2,0 -5,-1 -8,-6 -6,-10 15,-49 56,-88 107,-101 5,-1 10,1 11,6 1,4 -1,9 -6,10z"/>
   <path class="fil0" d="M471 272l-422 0c-27,0 -49,21 -49,46l0 246c0,5 1,10 2,14 9,43 45,74 88,74l339 0c43,0 79,-32 88,-74 1,-4 2,-9 2,-14l0 -246c0,-26 -22,-46 -49,-46zm-184 211l0 43c0,14 -12,25 -27,25 -15,0 -27,-11 -27,-25l0 -43c-20,-9 -33,-27 -33,-49 0,-30 27,-55 60,-55 33,0 60,24 60,55 0,21 -13,40 -33,49z"/>
  </g>
 </g>
</svg>
