<?xml version="1.0" encoding="UTF-8"?>
<!DOCTYPE svg PUBLIC "-//W3C//DTD SVG 1.1//EN" "http://www.w3.org/Graphics/SVG/1.1/DTD/svg11.dtd">
<!-- Creator: CorelDRAW X6 -->
<svg xmlns="http://www.w3.org/2000/svg" xml:space="preserve" width="29.9937mm" height="29.9929mm" version="1.1" style="shape-rendering:geometricPrecision; text-rendering:geometricPrecision; image-rendering:optimizeQuality; fill-rule:evenodd; clip-rule:evenodd"
viewBox="0 0 578 578"
 xmlns:xlink="http://www.w3.org/1999/xlink">
 <defs>
  <style type="text/css">
   <![CDATA[
    .fil0 {fill:#BDBFC1}
   ]]>
  </style>
 </defs>
 <g id="Camada_x0020_1">
  <metadata id="CorelCorpID_0Corel-Layer"/>
  <g id="_1100581216">
   <path class="fil0" d="M574 221l-88 -58 46 -71c18,-28 10,-65 -18,-83 -28,-18 -65,-10 -83,18l-11 17c-6,9 -3,22 6,28 9,6 22,3 28,-6l11 -17c6,-9 18,-12 28,-6 9,6 12,18 6,28l-45 70 -91 -60c-2,-2 -5,-2 -8,-1 -3,1 -4,3 -5,6l-58 213 203 0 80 -64c2,-2 3,-4 3,-7 0,-3 -2,-5 -4,-7z"/>
   <path class="fil0" d="M106 299l-4 -7c-1,-1 0,-3 1,-3l18 -11c1,-1 3,0 4,1l11 18c0,1 0,2 0,2l81 0 -8 -14c-1,-1 0,-3 1,-3l18 -11c1,0 1,0 2,0 1,0 1,1 2,1l11 18c1,1 0,3 -1,4l-10 6 56 0c-40,-69 -112,-192 -117,-200 -12,-21 -40,-32 -106,7 -66,39 -70,69 -58,89 3,5 31,52 61,104l40 0zm69 -23l-18 11c-1,1 -3,0 -4,-1l-11 -18c-1,-1 0,-3 1,-4l18 -11c1,-1 3,0 4,1l11 18c0,1 0,1 0,2 0,1 -1,1 -1,2zm30 -47c1,0 1,1 2,1l11 18c1,1 0,3 -1,4l-18 11c-1,0 -1,0 -2,0 -1,0 -1,-1 -2,-1l-11 -18c-1,-1 0,-3 1,-4l18 -11c1,0 1,0 2,0zm-146 -93l33 -19c1,-1 2,-1 4,0 1,0 2,1 3,2l1 2c1,2 1,5 -2,7l-33 19c-1,1 -2,1 -4,1 -1,0 -2,-1 -3,-2l-1 -2c-1,-2 -1,-5 2,-7zm-14 50l98 -57c1,0 2,-1 2,0 1,0 1,1 2,1l45 77c1,1 0,3 -1,4l-97 57c-1,0 -2,1 -2,0 -1,0 -1,-1 -2,-1l-45 -77c-1,-1 0,-3 1,-4z"/>
   <path class="fil0" d="M478 319l-398 0c-11,0 -20,9 -20,20l0 199c0,22 18,40 40,40l358 0c22,0 40,-18 40,-40l0 -199c0,-11 -9,-20 -20,-20zm-199 219c-11,0 -20,-9 -20,-20 0,-11 9,-20 20,-20 11,0 20,9 20,20 0,11 -9,20 -20,20zm15 -69l0 7c0,2 -1,3 -3,3l-24 0c-2,0 -3,-1 -3,-3l0 -29c0,-5 4,-8 8,-8l7 0c21,0 30,-13 30,-26 0,-31 -58,-33 -61,3 0,1 -1,3 -3,3l-26 0c-1,0 -2,0 -2,-1 -1,-1 -1,-1 -1,-2 1,-34 28,-59 62,-59 36,0 62,24 62,56 0,28 -20,50 -47,56z"/>
  </g>
 </g>
</svg>
