<?xml version="1.0" encoding="UTF-8"?>
<!DOCTYPE svg PUBLIC "-//W3C//DTD SVG 1.1//EN" "http://www.w3.org/Graphics/SVG/1.1/DTD/svg11.dtd">
<!-- Creator: CorelDRAW X6 -->
<svg xmlns="http://www.w3.org/2000/svg" xml:space="preserve" width="30.0035mm" height="29.9364mm" version="1.1" style="shape-rendering:geometricPrecision; text-rendering:geometricPrecision; image-rendering:optimizeQuality; fill-rule:evenodd; clip-rule:evenodd"
viewBox="0 0 650 649"
 xmlns:xlink="http://www.w3.org/1999/xlink">
 <defs>
  <style type="text/css">
   <![CDATA[
    .fil0 {fill:#BDBFC1;fill-rule:nonzero}
   ]]>
  </style>
 </defs>
 <g id="Camada_x0020_1">
  <metadata id="CorelCorpID_0Corel-Layer"/>
  <g id="iconfinder_calendar_1814093.ai">
   <path class="fil0" d="M582 649l-518 0c-35,0 -65,-29 -65,-65l0 -475c0,-35 24,-65 54,-65l32 0 0 43 -32 0c-4,0 -10,9 -10,22l0 475c0,12 10,22 22,22l518 0c12,0 22,-10 22,-22l0 -475c0,-13 -7,-22 -10,-22l-32 0 0 -43 32 0c29,0 54,29 54,65l0 475c-3,35 -32,65 -68,65z"/>
   <path class="fil0" d="M151 131c-12,0 -22,-10 -22,-22l0 -87c0,-12 10,-22 22,-22 12,0 22,10 22,22l0 87c-1,12 -10,22 -22,22z"/>
   <path class="fil0" d="M496 131c-12,0 -22,-10 -22,-22l0 -87c0,-12 10,-22 22,-22 12,0 22,10 22,22l0 87c0,12 -10,22 -22,22z"/>
   <polygon class="fil0" points="216,44 431,44 431,88 216,88 "/>
   <polygon class="fil0" points="43,174 604,174 604,218 43,218 "/>
   <polygon class="fil0" points="518,260 560,260 560,303 518,303 "/>
   <polygon class="fil0" points="431,260 475,260 475,303 431,303 "/>
   <polygon class="fil0" points="346,260 388,260 388,303 346,303 "/>
   <polygon class="fil0" points="259,260 301,260 301,303 259,303 "/>
   <polygon class="fil0" points="172,260 216,260 216,303 172,303 "/>
   <polygon class="fil0" points="518,347 560,347 560,390 518,390 "/>
   <polygon class="fil0" points="431,347 475,347 475,390 431,390 "/>
   <polygon class="fil0" points="346,347 388,347 388,390 346,390 "/>
   <polygon class="fil0" points="259,347 301,347 301,390 259,390 "/>
   <polygon class="fil0" points="172,347 216,347 216,390 172,390 "/>
   <polygon class="fil0" points="87,347 129,347 129,390 87,390 "/>
   <polygon class="fil0" points="518,432 560,432 560,476 518,476 "/>
   <polygon class="fil0" points="431,432 475,432 475,476 431,476 "/>
   <polygon class="fil0" points="346,432 388,432 388,476 346,476 "/>
   <polygon class="fil0" points="259,432 301,432 301,476 259,476 "/>
   <polygon class="fil0" points="172,432 216,432 216,476 172,476 "/>
   <polygon class="fil0" points="87,432 129,432 129,476 87,476 "/>
   <polygon class="fil0" points="431,519 475,519 475,562 431,562 "/>
   <polygon class="fil0" points="346,519 388,519 388,562 346,562 "/>
   <polygon class="fil0" points="259,519 301,519 301,562 259,562 "/>
   <polygon class="fil0" points="172,519 216,519 216,562 172,562 "/>
   <polygon class="fil0" points="87,519 129,519 129,562 87,562 "/>
  </g>
 </g>
</svg>
