<?xml version="1.0" encoding="UTF-8"?>
<!DOCTYPE svg PUBLIC "-//W3C//DTD SVG 1.1//EN" "http://www.w3.org/Graphics/SVG/1.1/DTD/svg11.dtd">
<!-- Creator: CorelDRAW X6 -->
<svg xmlns="http://www.w3.org/2000/svg" xml:space="preserve" width="29.9999mm" height="26.5254mm" version="1.1" style="shape-rendering:geometricPrecision; text-rendering:geometricPrecision; image-rendering:optimizeQuality; fill-rule:evenodd; clip-rule:evenodd"
viewBox="0 0 530 469"
 xmlns:xlink="http://www.w3.org/1999/xlink">
 <defs>
  <style type="text/css">
   <![CDATA[
    .fil0 {fill:#BDBFC1}
   ]]>
  </style>
 </defs>
 <g id="Camada_x0020_1">
  <metadata id="CorelCorpID_0Corel-Layer"/>
  <path class="fil0" d="M244 1c-2,-1 -3,-1 -5,-1 -3,0 -7,1 -9,4l-145 147 -72 0c-7,0 -13,6 -13,13l0 139c0,7 6,13 13,13l72 0 145 147c3,3 6,4 9,4 2,0 3,0 5,-1 5,-2 8,-7 8,-12l0 -442c0,-5 -3,-10 -8,-12zm56 157c-8,8 -8,20 0,27 25,25 25,65 0,90 -8,8 -8,20 0,27 4,4 9,6 14,6 5,0 10,-2 14,-6 40,-40 40,-105 0,-145 -8,-8 -20,-8 -27,0zm92 -51c-8,-8 -20,-8 -27,0 -8,8 -8,20 0,27 53,53 53,140 0,193 -8,8 -8,20 0,27 4,4 9,6 14,6 5,0 10,-2 14,-6 68,-68 68,-179 0,-248zm65 -51c-8,-8 -20,-8 -27,0 -8,8 -8,20 0,27 81,81 81,214 0,295 -8,8 -8,20 0,27 4,4 9,6 14,6 5,0 10,-2 14,-6 96,-96 96,-253 0,-350z"/>
 </g>
</svg>
