<?xml version="1.0" encoding="UTF-8"?>
<!DOCTYPE svg PUBLIC "-//W3C//DTD SVG 1.1//EN" "http://www.w3.org/Graphics/SVG/1.1/DTD/svg11.dtd">
<!-- Creator: CorelDRAW X6 -->
<svg xmlns="http://www.w3.org/2000/svg" xml:space="preserve" width="31.4999mm" height="28.1576mm" version="1.1" style="shape-rendering:geometricPrecision; text-rendering:geometricPrecision; image-rendering:optimizeQuality; fill-rule:evenodd; clip-rule:evenodd"
viewBox="0 0 6640 5936"
 xmlns:xlink="http://www.w3.org/1999/xlink">
 <defs>
  <style type="text/css">
   <![CDATA[
    .fil1 {fill:#BDBFC1}
    .fil0 {fill:#BDBFC1;fill-rule:nonzero}
   ]]>
  </style>
 </defs>
 <g id="Camada_x0020_1">
  <metadata id="CorelCorpID_0Corel-Layer"/>
  <g>
   <path class="fil0" d="M46 3208l3162 -3162 224 224 -3162 3162 -112 46 -112 -270zm0 0l224 224 -6 6 -6 5 -6 5 -6 5 -7 4 -7 4 -7 3 -7 3 -7 3 -7 2 -7 2 -7 2 -8 1 -8 1 -8 1 -8 0 -8 0 -8 -1 -8 -1 -8 -1 -7 -2 -7 -2 -7 -2 -7 -3 -7 -3 -7 -3 -7 -4 -7 -4 -6 -5 -6 -5 -6 -5 -6 -6 -6 -6 -5 -6 -5 -6 -5 -6 -4 -7 -4 -7 -3 -7 -3 -7 -3 -7 -2 -7 -2 -7 -2 -7 -1 -8 -1 -8 -1 -8 0 -8 0 -8 1 -8 1 -8 1 -8 2 -7 2 -7 2 -7 3 -7 3 -7 3 -7 4 -7 4 -7 5 -6 5 -6 5 -6 6 -6zm1038 270l-926 0 0 -316 926 0 158 158 -158 158zm0 0l0 -316 8 0 8 1 8 1 8 1 8 2 8 2 7 2 7 3 7 3 7 3 7 4 6 4 6 4 6 5 6 5 5 5 5 5 5 6 5 6 4 6 4 6 4 7 3 7 3 7 3 7 2 7 2 8 2 8 1 8 1 8 1 8 0 8 0 8 -1 8 -1 8 -1 8 -2 8 -2 8 -2 7 -3 7 -3 7 -3 7 -4 7 -4 6 -4 6 -5 6 -5 6 -5 5 -5 5 -6 5 -6 5 -6 4 -6 4 -7 4 -7 3 -7 3 -7 3 -7 2 -8 2 -8 2 -8 1 -8 1 -8 1 -8 0zm-158 2300l0 -2458 316 0 0 2458 -158 158 -158 -158zm0 0l316 0 0 8 -1 8 -1 8 -1 8 -2 8 -2 8 -2 7 -3 7 -3 7 -3 7 -4 7 -4 6 -4 6 -5 6 -5 6 -5 5 -5 5 -6 5 -6 5 -6 4 -6 4 -7 4 -7 3 -7 3 -7 3 -7 2 -8 2 -8 2 -8 1 -8 1 -8 1 -8 0 -8 0 -8 -1 -8 -1 -8 -1 -8 -2 -8 -2 -7 -2 -7 -3 -7 -3 -7 -3 -7 -4 -6 -4 -6 -4 -6 -5 -6 -5 -5 -5 -5 -5 -5 -6 -5 -6 -4 -6 -4 -6 -4 -7 -3 -7 -3 -7 -3 -7 -2 -7 -2 -8 -2 -8 -1 -8 -1 -8 -1 -8 0 -8zm4630 158l-4472 0 0 -316 4472 0 158 158 -158 158zm0 0l0 -316 8 0 8 1 8 1 8 1 8 2 8 2 7 2 7 3 7 3 7 3 7 4 6 4 6 4 6 5 6 5 5 5 5 5 5 6 5 6 4 6 4 6 4 7 3 7 3 7 3 7 2 7 2 8 2 8 1 8 1 8 1 8 0 8 0 8 -1 8 -1 8 -1 8 -2 8 -2 8 -2 7 -3 7 -3 7 -3 7 -4 7 -4 6 -4 6 -5 6 -5 6 -5 5 -5 5 -6 5 -6 5 -6 4 -6 4 -7 4 -7 3 -7 3 -7 3 -7 2 -8 2 -8 2 -8 1 -8 1 -8 1 -8 0zm158 -2616l0 2458 -316 0 0 -2458 158 -158 158 158zm0 0l-316 0 0 -8 1 -8 1 -8 1 -8 2 -8 2 -8 2 -7 3 -7 3 -7 3 -7 4 -7 4 -6 4 -6 5 -6 5 -6 5 -5 5 -5 6 -5 6 -5 6 -4 6 -4 7 -4 7 -3 7 -3 7 -3 7 -2 8 -2 8 -2 8 -1 8 -1 8 -1 8 0 8 0 8 1 8 1 8 1 8 2 8 2 7 2 7 3 7 3 7 3 7 4 6 4 6 4 6 5 6 5 5 5 5 5 5 6 5 6 4 6 4 6 4 7 3 7 3 7 3 7 2 7 2 8 2 8 1 8 1 8 1 8 0 8zm768 158l-926 0 0 -316 926 0 112 46 -112 270zm0 0l0 -316 8 0 8 1 8 1 8 1 8 2 8 2 7 2 7 3 7 3 7 3 7 4 6 4 6 4 6 5 6 5 5 5 5 5 5 6 5 6 4 6 4 6 4 7 3 7 3 7 3 7 2 7 2 8 2 8 1 8 1 8 1 8 0 8 0 8 -1 8 -1 8 -1 8 -2 8 -2 8 -2 7 -3 7 -3 7 -3 7 -4 7 -4 6 -4 6 -5 6 -5 6 -5 5 -5 5 -6 5 -6 5 -6 4 -6 4 -7 4 -7 3 -7 3 -7 3 -7 2 -8 2 -8 2 -8 1 -8 1 -8 1 -8 0zm-3050 -3432l3162 3162 -224 224 -3162 -3162 0 -224 224 0zm0 0l-224 224 -6 -6 -5 -6 -5 -6 -5 -6 -4 -7 -4 -7 -3 -7 -3 -7 -3 -7 -2 -7 -2 -7 -2 -7 -1 -8 -1 -8 -1 -8 0 -8 0 -8 1 -8 1 -8 1 -8 2 -7 2 -7 2 -7 3 -7 3 -7 3 -7 4 -7 4 -7 5 -6 5 -6 5 -6 6 -6 6 -6 6 -5 6 -5 6 -5 7 -4 7 -4 7 -3 7 -3 7 -3 7 -2 7 -2 7 -2 8 -1 8 -1 8 -1 8 0 8 0 8 1 8 1 8 1 7 2 7 2 7 2 7 3 7 3 7 3 7 4 7 4 6 5 6 5 6 5 6 6z"/>
  </g>
  <path class="fil1" d="M2334 2474c-31,-66 -19,-157 25,-202l0 0 906 -928c34,-35 78,-34 111,0l0 0 906 928c44,46 56,136 25,202l0 0c-31,66 -92,83 -136,37l0 0 -850 -871 -850 871 0 0c-17,17 -36,26 -55,26l0 0c-31,0 -62,-22 -81,-63l0 0z"/>
 </g>
</svg>
