<?xml version="1.0" encoding="UTF-8"?>
<!DOCTYPE svg PUBLIC "-//W3C//DTD SVG 1.1//EN" "http://www.w3.org/Graphics/SVG/1.1/DTD/svg11.dtd">
<!-- Creator: CorelDRAW X6 -->
<svg xmlns="http://www.w3.org/2000/svg" xml:space="preserve" width="29.9973mm" height="26.1804mm" version="1.1" style="shape-rendering:geometricPrecision; text-rendering:geometricPrecision; image-rendering:optimizeQuality; fill-rule:evenodd; clip-rule:evenodd"
viewBox="0 0 576 503"
 xmlns:xlink="http://www.w3.org/1999/xlink">
 <defs>
  <style type="text/css">
   <![CDATA[
    .fil0 {fill:#BDBFC1}
   ]]>
  </style>
 </defs>
 <g id="Camada_x0020_1">
  <metadata id="CorelCorpID_0Corel-Layer"/>
  <g id="_1100567200">
   <path class="fil0" d="M190 441c-7,35 -38,61 -75,61 -42,0 -77,-34 -77,-77 0,-37 26,-68 62,-75l-12 49c-3,14 1,29 10,39 8,8 19,13 31,13 3,0 5,0 8,-1l13 -3c12,-2 25,-5 40,-8zm-78 -36c-1,6 0,12 4,16 4,4 10,6 16,5 88,-17 363,-69 389,-75 35,-7 58,-36 54,-51 -3,-14 -16,-11 -32,-8 -7,1 -201,37 -291,53 -12,2 -24,-1 -34,-7 -10,-7 -17,-18 -19,-30l-40 -228c-6,-34 -35,-59 -70,-59l-60 0c-16,0 -29,13 -29,29 0,16 13,29 29,29l53 0c12,0 22,9 24,20l34 192 -27 113zm368 -18c-32,0 -58,26 -58,58 0,32 26,58 58,58 32,0 58,-26 58,-58 0,-32 -26,-58 -58,-58zm0 77c-11,0 -19,-9 -19,-19 0,-11 9,-19 19,-19 11,0 19,9 19,19 0,11 -9,19 -19,19z"/>
   <path class="fil0" d="M455 0l-256 45c-12,2 -20,13 -18,25l41 235c2,12 13,20 25,18l256 -45c12,-2 20,-13 18,-25l-41 -235c-2,-12 -13,-20 -25,-18zm-176 64l43 -8 10 55 -36 44 -16 -91zm64 -11l43 -8 0 1 -36 44 -7 -37zm-126 22l40 -7 19 109 -36 44 -25 -143c0,-1 1,-2 2,-3zm35 211l-7 -38 174 -209 27 -5c1,0 2,1 3,2l7 38 -174 209 -27 5c-1,0 -2,-1 -3,-2zm171 -28l-43 8 -10 -55 36 -44 16 91zm-64 11l-43 8 0 -1 36 -44 7 37zm126 -22l-40 7 -19 -109 36 -44 25 143c0,1 -1,2 -2,3z"/>
  </g>
 </g>
</svg>
