<?xml version="1.0" encoding="UTF-8"?>
<!DOCTYPE svg PUBLIC "-//W3C//DTD SVG 1.1//EN" "http://www.w3.org/Graphics/SVG/1.1/DTD/svg11.dtd">
<!-- Creator: CorelDRAW X6 -->
<svg xmlns="http://www.w3.org/2000/svg" xml:space="preserve" width="30mm" height="37.8393mm" version="1.1" style="shape-rendering:geometricPrecision; text-rendering:geometricPrecision; image-rendering:optimizeQuality; fill-rule:evenodd; clip-rule:evenodd"
viewBox="0 0 1052 1327"
 xmlns:xlink="http://www.w3.org/1999/xlink">
 <defs>
  <style type="text/css">
   <![CDATA[
    .fil0 {fill:#BDBFC1}
   ]]>
  </style>
 </defs>
 <g id="Camada_x0020_1">
  <metadata id="CorelCorpID_0Corel-Layer"/>
  <g id="_1056023776">
   <path class="fil0" d="M526 804c-263,0 -480,-105 -520,-243 -4,15 -7,30 -7,45l0 115c0,159 236,289 526,289 291,0 526,-129 526,-289l0 -115c0,-15 -2,-31 -7,-45 -40,138 -257,243 -520,243z"/>
   <path class="fil0" d="M526 1121c-263,0 -480,-105 -520,-243 -4,15 -7,30 -7,45l0 115c0,159 236,289 526,289 291,0 526,-129 526,-289l0 -115c0,-15 -2,-31 -7,-45 -40,138 -257,243 -520,243z"/>
   <path class="fil0" d="M526 0c-291,0 -526,129 -526,289l0 115c0,159 236,289 526,289 291,0 526,-129 526,-289l0 -115c0,-159 -236,-289 -526,-289z"/>
  </g>
 </g>
</svg>
