<?xml version="1.0" encoding="UTF-8"?>
<!DOCTYPE svg PUBLIC "-//W3C//DTD SVG 1.1//EN" "http://www.w3.org/Graphics/SVG/1.1/DTD/svg11.dtd">
<!-- Creator: CorelDRAW X6 -->
<svg xmlns="http://www.w3.org/2000/svg" xml:space="preserve" width="40mm" height="27.7058mm" version="1.1" style="shape-rendering:geometricPrecision; text-rendering:geometricPrecision; image-rendering:optimizeQuality; fill-rule:evenodd; clip-rule:evenodd"
viewBox="0 0 868 601"
 xmlns:xlink="http://www.w3.org/1999/xlink">
 <defs>
  <style type="text/css">
   <![CDATA[
    .fil0 {fill:#D2D3D5}
   ]]>
  </style>
 </defs>
 <g id="Camada_x0020_1">
  <metadata id="CorelCorpID_0Corel-Layer"/>
  <g id="_827006368">
   <path class="fil0" d="M850 174c-52,-100 -219,-174 -417,-174 -200,0 -368,75 -418,176 -9,10 -15,23 -15,37l0 52c0,29 24,53 53,53l94 0c29,0 53,-24 53,-53l0 -52c0,-26 -18,-47 -43,-52 5,-3 10,-6 16,-9 67,-37 162,-58 261,-58 99,0 194,21 261,58 6,3 11,6 16,10 -24,5 -42,26 -42,52l0 52c0,29 24,53 53,53l94 0c29,0 53,-24 53,-53l0 -52c0,-16 -7,-30 -18,-40z"/>
   <path class="fil0" d="M434 529c-80,0 -146,-58 -146,-129 0,-71 65,-129 146,-129 80,0 145,58 145,129 0,71 -65,129 -145,129zm230 -128l-19 0 -30 -177 34 0c9,0 16,-6 16,-14l0 -37c0,-8 -7,-14 -16,-14l-430 0c-9,0 -16,6 -16,14l0 37c0,8 7,14 16,14l34 0 -30 177 -20 0c-20,0 -37,10 -37,23l0 155c0,13 17,23 37,23l460 0c20,0 37,-10 37,-23l0 -155c0,-13 -17,-23 -37,-23z"/>
   <path class="fil0" d="M469 414c-9,8 -21,12 -35,12 -14,0 -26,-4 -35,-12 -3,-3 -8,-8 -8,-15 0,-7 5,-12 8,-15 9,-8 21,-12 35,-12 14,0 26,4 35,12 3,3 8,8 8,15 0,7 -5,12 -8,15zm28 -62c-17,-15 -39,-23 -63,-23 -24,0 -47,8 -63,23 -15,13 -23,30 -23,47 0,17 8,34 23,47 17,15 39,23 63,23 24,0 47,-8 63,-23 15,-13 23,-30 23,-47 0,-17 -8,-34 -23,-47z"/>
  </g>
 </g>
</svg>
