<?xml version="1.0" encoding="UTF-8"?>
<!DOCTYPE svg PUBLIC "-//W3C//DTD SVG 1.1//EN" "http://www.w3.org/Graphics/SVG/1.1/DTD/svg11.dtd">
<!-- Creator: CorelDRAW X6 -->
<svg xmlns="http://www.w3.org/2000/svg" xml:space="preserve" width="30mm" height="25.4217mm" version="1.1" style="shape-rendering:geometricPrecision; text-rendering:geometricPrecision; image-rendering:optimizeQuality; fill-rule:evenodd; clip-rule:evenodd"
viewBox="0 0 3021 2560"
 xmlns:xlink="http://www.w3.org/1999/xlink">
 <defs>
  <style type="text/css">
   <![CDATA[
    .fil0 {fill:#D2D3D5}
   ]]>
  </style>
    <clipPath id="id0">
     <path d="M2825 547l-732 0 0 223c0,62 -49,113 -109,113l-948 0c-60,0 -109,-50 -109,-113l0 -223 -732 0c-108,0 -196,95 -196,213l0 1587c0,118 88,213 196,213l2630 0c108,0 196,-95 196,-213l0 -1587c0,-118 -88,-213 -196,-213zm-2221 809c0,-6 2,-11 4,-15 -1,-61 15,-127 31,-163 25,-59 98,-87 168,-87 70,0 156,33 178,94 13,37 21,101 20,156 3,5 4,10 4,16l0 111c0,15 -10,27 -23,30 -21,77 -97,183 -179,183 -82,0 -154,-104 -179,-183 -14,-2 -24,-15 -24,-30l0 -111zm-281 876c0,-3 0,-288 0,-291 5,-174 144,-144 286,-190 29,-9 52,-24 62,-32 10,54 133,175 137,313 1,-139 133,-238 135,-312 10,8 36,23 63,31 143,42 281,15 286,190 0,3 0,288 0,291l-969 0zm2386 -732l-1099 0 0 -136 1099 0 0 136zm0 -299l-1099 0 0 -133 1099 0 0 133z"/>
    </clipPath>
    <clipPath id="id1">
     <path d="M1902 280l-136 0c0,-5 1,-9 1,-14 0,-147 -115,-266 -257,-266 -142,0 -257,119 -257,266 0,5 0,9 1,14l-136 0c-50,0 -90,42 -90,93l0 317c0,51 40,93 90,93l784 0c50,0 90,-42 90,-93l0 -317c0,-51 -40,-93 -90,-93zm-392 112c-70,0 -126,-58 -126,-131 0,-72 56,-130 126,-130 70,0 126,58 126,130 0,72 -56,131 -126,131z"/>
    </clipPath>
 </defs>
 <g id="Camada_x0020_1">
  <metadata id="CorelCorpID_0Corel-Layer"/>
  <g id="_827393904">
   <g style="clip-path:url(#id0)">
    <image transform="matrix(0 0.669258 0.646869 0 -2340.81 -7779.35)" x="1500" y="3548" width="621" height="4811" xlink:href="Concessao_Images\Concessao_ImgID1.png"/>
   </g>
   <path class="fil0" d="M2825 547l-732 0 0 223c0,62 -49,113 -109,113l-948 0c-60,0 -109,-50 -109,-113l0 -223 -732 0c-108,0 -196,95 -196,213l0 1587c0,118 88,213 196,213l2630 0c108,0 196,-95 196,-213l0 -1587c0,-118 -88,-213 -196,-213zm-2221 809c0,-6 2,-11 4,-15 -1,-61 15,-127 31,-163 25,-59 98,-87 168,-87 70,0 156,33 178,94 13,37 21,101 20,156 3,5 4,10 4,16l0 111c0,15 -10,27 -23,30 -21,77 -97,183 -179,183 -82,0 -154,-104 -179,-183 -14,-2 -24,-15 -24,-30l0 -111zm-281 876c0,-3 0,-288 0,-291 5,-174 144,-144 286,-190 29,-9 52,-24 62,-32 10,54 133,175 137,313 1,-139 133,-238 135,-312 10,8 36,23 63,31 143,42 281,15 286,190 0,3 0,288 0,291l-969 0zm2386 -732l-1099 0 0 -136 1099 0 0 136zm0 -299l-1099 0 0 -133 1099 0 0 133z"/>
   <g style="clip-path:url(#id1)">
    <image transform="matrix(0 0.669258 0.646869 0 -3369.01 -4967.13)" x="1500" y="6727" width="2601" height="1632" xlink:href="Concessao_Images\Concessao_ImgID2.png"/>
   </g>
   <path class="fil0" d="M1902 280l-136 0c0,-5 1,-9 1,-14 0,-147 -115,-266 -257,-266 -142,0 -257,119 -257,266 0,5 0,9 1,14l-136 0c-50,0 -90,42 -90,93l0 317c0,51 40,93 90,93l784 0c50,0 90,-42 90,-93l0 -317c0,-51 -40,-93 -90,-93zm-392 112c-70,0 -126,-58 -126,-131 0,-72 56,-130 126,-130 70,0 126,58 126,130 0,72 -56,131 -126,131l0 0z"/>
  </g>
 </g>
</svg>
