<?xml version="1.0" encoding="UTF-8"?>
<!DOCTYPE svg PUBLIC "-//W3C//DTD SVG 1.1//EN" "http://www.w3.org/Graphics/SVG/1.1/DTD/svg11.dtd">
<!-- Creator: CorelDRAW X6 -->
<svg xmlns="http://www.w3.org/2000/svg" xml:space="preserve" width="30.0008mm" height="22.0629mm" version="1.1" style="shape-rendering:geometricPrecision; text-rendering:geometricPrecision; image-rendering:optimizeQuality; fill-rule:evenodd; clip-rule:evenodd"
viewBox="0 0 518 381"
 xmlns:xlink="http://www.w3.org/1999/xlink">
 <defs>
  <style type="text/css">
   <![CDATA[
    .fil0 {fill:#BDBFC1}
   ]]>
  </style>
 </defs>
 <g id="Camada_x0020_1">
  <metadata id="CorelCorpID_0Corel-Layer"/>
  <g id="_886428320">
   <path class="fil0" d="M437 247l-356 0 0 -202c0,-4 3,-7 7,-7l342 0c4,0 7,3 7,7l0 202zm36 -202c0,-25 -19,-44 -43,-44l-342 0c-24,0 -43,20 -43,44l0 239 428 0 0 -239z"/>
   <path class="fil0" d="M476 344l-41 0 0 -12 41 0c3,0 6,3 6,6 0,3 -3,6 -6,6zm-73 0l-48 0 0 -12 48 0 0 12zm-117 0l-58 0 0 -12 58 0 0 12zm-206 0l-39 0c-3,0 -6,-3 -6,-6 0,-3 3,-6 6,-6l39 0 0 12zm396 -49l-435 0c-23,0 -42,19 -42,43 0,24 19,43 42,43l435 0c23,0 42,-19 42,-43 0,-24 -19,-43 -42,-43z"/>
  </g>
 </g>
</svg>
