<?xml version="1.0" encoding="UTF-8"?>
<!DOCTYPE svg PUBLIC "-//W3C//DTD SVG 1.1//EN" "http://www.w3.org/Graphics/SVG/1.1/DTD/svg11.dtd">
<!-- Creator: CorelDRAW X6 -->
<svg xmlns="http://www.w3.org/2000/svg" xml:space="preserve" width="29.9993mm" height="29.9994mm" version="1.1" style="shape-rendering:geometricPrecision; text-rendering:geometricPrecision; image-rendering:optimizeQuality; fill-rule:evenodd; clip-rule:evenodd"
viewBox="0 0 3021 3021"
 xmlns:xlink="http://www.w3.org/1999/xlink">
 <defs>
  <style type="text/css">
   <![CDATA[
    .fil0 {fill:#D2D3D5}
   ]]>
  </style>
 </defs>
 <g id="Camada_x0020_1">
  <metadata id="CorelCorpID_0Corel-Layer"/>
  <path class="fil0" d="M1705 778c405,107 646,522 539,927 -107,405 -522,646 -927,539 -405,-107 -646,-522 -539,-927 107,-405 522,-646 927,-539l0 0zm180 516c-56,-96 -148,-171 -264,-201 -115,-30 -232,-11 -328,44 -96,56 -171,148 -201,263 -31,115 -11,232 44,328 56,96 148,171 263,201 115,31 232,11 328,-44 96,-56 171,-148 201,-264 31,-115 11,-232 -44,-328l0 0zm345 -1111c140,76 264,171 371,283l-158 181 280 482 235 -48c44,148 66,304 62,462l-239 16 -143 539 200 132c-76,140 -172,264 -283,371l-181 -158 -482 280 48 235c-148,44 -304,66 -462,62l-16 -239 -539 -143 -132 200c-139,-75 -264,-171 -371,-283l158 -181 -280 -482 -235 48c-44,-148 -66,-304 -62,-462l240 -16 143 -539 -200 -132c75,-140 171,-264 283,-371l181 158 482 -280 -48 -235c148,-44 304,-66 462,-62l16 240 539 143 132 -200z"/>
 </g>
</svg>
