<?xml version="1.0" encoding="UTF-8"?>
<!DOCTYPE svg PUBLIC "-//W3C//DTD SVG 1.1//EN" "http://www.w3.org/Graphics/SVG/1.1/DTD/svg11.dtd">
<!-- Creator: CorelDRAW X6 -->
<svg xmlns="http://www.w3.org/2000/svg" xml:space="preserve" width="29.9988mm" height="20.22mm" version="1.1" style="shape-rendering:geometricPrecision; text-rendering:geometricPrecision; image-rendering:optimizeQuality; fill-rule:evenodd; clip-rule:evenodd"
viewBox="0 0 607 409"
 xmlns:xlink="http://www.w3.org/1999/xlink">
 <defs>
  <style type="text/css">
   <![CDATA[
    .fil0 {fill:#BDBFC1}
   ]]>
  </style>
 </defs>
 <g id="Camada_x0020_1">
  <metadata id="CorelCorpID_0Corel-Layer"/>
  <path class="fil0" d="M508 0c-11,7 -37,22 -37,22 41,5 97,50 102,123 11,-10 28,-24 35,-30 -7,-61 -62,-106 -100,-115zm-35 260c-5,4 -5,11 -1,15 4,5 4,14 0,18 -2,2 -8,5 -14,5 -2,0 -6,0 -9,-3 0,0 0,0 -1,-1l-129 -110 0 0c-5,-4 -12,-3 -15,1 -4,5 -3,12 1,15l0 0 1 1 128 109c0,0 0,0 0,0 0,0 1,1 1,4 0,6 -4,16 -10,22 -6,6 -18,2 -20,1l-114 -103c-4,-4 -11,-4 -15,1 -4,4 -4,11 1,15 0,0 0,0 0,0l0 0 0 0 101 94c4,4 1,14 -4,18 -5,6 -17,3 -19,1l-88 -85c0,0 0,0 0,0 -4,-4 -11,-4 -15,0 -4,4 -4,11 0,16l65 66c2,3 3,6 3,9 0,3 -2,6 -4,8l-2 2c-5,5 -14,13 -36,-6 -5,-4 -12,-3 -15,1 -4,5 -3,12 1,15 13,11 25,16 37,16 10,0 19,-4 28,-12 5,-4 9,-10 11,-16 5,5 15,8 25,8 1,0 1,0 2,0 10,0 19,-4 23,-10 4,-4 8,-11 10,-19 5,2 10,3 16,3 9,0 18,-3 25,-10 7,-7 14,-20 16,-32 0,0 0,0 0,0 1,0 1,0 2,0 11,-1 23,-6 29,-13 10,-11 12,-33 0,-47 -4,-5 -11,-5 -15,-1zm-21 -221c-9,5 -38,17 -55,22 -14,3 -86,-26 -99,-28 -13,-2 -117,37 -125,53 -8,16 32,44 68,37 36,-8 46,-17 54,-11 9,6 117,106 170,135 35,18 79,-72 91,-87 -9,-39 -41,-114 -105,-120zm-206 297c-6,-4 -14,-5 -20,-3l0 0c8,-10 7,-25 -4,-33 -7,-5 -15,-6 -22,-4 4,-10 2,-22 -7,-28 -10,-8 -25,-6 -33,4l-3 4c0,-6 -2,-11 -6,-16 -9,-10 -24,-11 -33,-2l-21 19c-10,9 -11,24 -2,33 5,5 11,8 18,8 6,0 12,17 22,24 4,3 10,5 15,5 5,0 15,12 22,17 4,4 10,5 15,5 5,0 17,13 25,18 4,3 9,4 14,4 7,0 15,-4 19,-10l9 -13c8,-11 5,-26 -6,-33zm-136 -98c-25,-15 -60,-44 -80,-69 -6,-33 47,-98 76,-109 3,0 29,7 45,15 10,-10 28,-20 28,-20 -53,-23 -73,-25 -78,-24 -1,0 -1,0 -2,1 -44,14 -110,98 -96,148 0,2 1,3 2,5 22,30 54,58 83,75l22 -21z"/>
 </g>
</svg>
