<?xml version="1.0" encoding="UTF-8"?>
<!DOCTYPE svg PUBLIC "-//W3C//DTD SVG 1.1//EN" "http://www.w3.org/Graphics/SVG/1.1/DTD/svg11.dtd">
<!-- Creator: CorelDRAW X6 -->
<svg xmlns="http://www.w3.org/2000/svg" xml:space="preserve" width="30mm" height="37.9592mm" version="1.1" style="shape-rendering:geometricPrecision; text-rendering:geometricPrecision; image-rendering:optimizeQuality; fill-rule:evenodd; clip-rule:evenodd"
viewBox="0 0 516 653"
 xmlns:xlink="http://www.w3.org/1999/xlink">
 <defs>
  <style type="text/css">
   <![CDATA[
    .fil0 {fill:#D2D3D5}
   ]]>
  </style>
 </defs>
 <g id="Camada_x0020_1">
  <metadata id="CorelCorpID_0Corel-Layer"/>
  <g id="_827048800">
   <path class="fil0" d="M258 237c-32,0 -57,27 -57,59 0,33 26,59 57,59 32,0 57,-27 57,-59 0,-33 -26,-59 -57,-59z"/>
   <path class="fil0" d="M258 0c-100,74 -258,89 -258,89l0 178c0,267 258,386 258,386 0,0 258,-119 258,-386l0 -178c0,0 -158,-15 -258,-89zm172 327l-46 0c-3,15 -9,29 -17,41l33 34 -41 42 -33 -34c-12,8 -26,14 -40,17l0 48 -57 0 0 -48c-14,-3 -28,-9 -40,-17l-33 34 -41 -42 33 -34c-8,-13 -13,-26 -17,-41l-46 0 0 -59 46 0c3,-15 9,-29 17,-41l-33 -34 41 -42 33 34c12,-8 26,-14 40,-17l0 -48 57 0 0 48c14,3 28,9 40,17l33 -34 41 42 -33 34c8,13 13,26 17,41l46 0 0 59z"/>
  </g>
 </g>
</svg>
