<?xml version="1.0" encoding="UTF-8"?>
<!DOCTYPE svg PUBLIC "-//W3C//DTD SVG 1.1//EN" "http://www.w3.org/Graphics/SVG/1.1/DTD/svg11.dtd">
<!-- Creator: CorelDRAW X6 -->
<svg xmlns="http://www.w3.org/2000/svg" xml:space="preserve" width="30mm" height="22.5mm" version="1.1" style="shape-rendering:geometricPrecision; text-rendering:geometricPrecision; image-rendering:optimizeQuality; fill-rule:evenodd; clip-rule:evenodd"
viewBox="0 0 813 610"
 xmlns:xlink="http://www.w3.org/1999/xlink">
 <defs>
  <style type="text/css">
   <![CDATA[
    .fil0 {fill:#BDBFC1;fill-rule:nonzero}
   ]]>
  </style>
 </defs>
 <g id="Camada_x0020_1">
  <metadata id="CorelCorpID_0Corel-Layer"/>
  <g id="iconfinder_contact-person-id-identity-badge_3209380.ai">
   <path class="fil0" d="M813 0l-813 0 0 610 813 0 0 -610zm-34 576l-745 0 0 -542 745 0 0 542z"/>
   <path class="fil0" d="M372 339c0,-41 -30,-76 -69,-83 11,-14 19,-32 19,-52 0,-47 -38,-85 -85,-85 -47,0 -85,38 -85,85 0,20 7,38 19,52 -39,7 -69,42 -69,83l0 119 271 0 0 -119zm-135 -186c28,0 51,23 51,51 0,28 -23,51 -51,51 -28,0 -51,-23 -51,-51 0,-28 23,-51 51,-51zm102 271l-203 0 0 -85c0,-28 23,-51 51,-51l102 0c28,0 51,23 51,51l0 85z"/>
   <polygon class="fil0" points="423,169 542,169 542,203 423,203 "/>
   <polygon class="fil0" points="593,169 711,169 711,203 593,203 "/>
   <polygon class="fil0" points="423,254 474,254 474,288 423,288 "/>
   <polygon class="fil0" points="525,254 711,254 711,288 525,288 "/>
   <polygon class="fil0" points="423,339 559,339 559,372 423,372 "/>
   <polygon class="fil0" points="643,339 711,339 711,372 643,372 "/>
   <polygon class="fil0" points="423,423 457,423 457,457 423,457 "/>
   <polygon class="fil0" points="491,423 525,423 525,457 491,457 "/>
   <polygon class="fil0" points="559,423 593,423 593,457 559,457 "/>
   <polygon class="fil0" points="677,423 711,423 711,457 677,457 "/>
  </g>
 </g>
</svg>
