<?xml version="1.0" encoding="UTF-8"?>
<!DOCTYPE svg PUBLIC "-//W3C//DTD SVG 1.1//EN" "http://www.w3.org/Graphics/SVG/1.1/DTD/svg11.dtd">
<!-- Creator: CorelDRAW X6 -->
<svg xmlns="http://www.w3.org/2000/svg" xml:space="preserve" width="29.9989mm" height="30.1478mm" version="1.1" style="shape-rendering:geometricPrecision; text-rendering:geometricPrecision; image-rendering:optimizeQuality; fill-rule:evenodd; clip-rule:evenodd"
viewBox="0 0 1739 1747"
 xmlns:xlink="http://www.w3.org/1999/xlink">
 <defs>
  <style type="text/css">
   <![CDATA[
    .fil0 {fill:#BDBFC1}
   ]]>
  </style>
 </defs>
 <g id="Camada_x0020_1">
  <metadata id="CorelCorpID_0Corel-Layer"/>
  <g id="_845151760">
   <g>
    <path class="fil0" d="M1652 674l0 922c0,36 -28,64 -64,64l-1437 0c-35,0 -64,-29 -64,-64l0 -922 -87 0 0 923c0,83 67,151 151,151l1437 0c83,0 151,-67 151,-151l0 -923 -87 0z"/>
    <g>
     <path class="fil0" d="M1588 203l-186 0 0 79c30,26 49,64 49,106 0,77 -63,140 -140,140 -77,0 -140,-63 -140,-140 0,-38 15,-73 40,-98l0 -87 -100 0 0 80c29,26 47,63 47,105 0,77 -63,140 -140,140 -77,0 -140,-63 -140,-140 0,-39 16,-74 42,-100l0 -85 -100 0 0 82c28,26 46,62 46,104 0,77 -63,140 -140,140 -77,0 -140,-63 -140,-140 0,-40 17,-75 43,-101l0 -84 -100 0 0 83c27,26 45,62 45,102 0,77 -63,140 -140,140 -77,0 -140,-63 -140,-140 0,-40 17,-77 45,-102l0 -83 -186 0c-83,0 -151,67 -151,151l0 251 1739 0 0 -251c0,-83 -67,-151 -151,-151z"/>
     <path class="fil0" d="M433 0c-34,0 -61,27 -61,61l0 325c0,34 27,61 61,61 34,0 61,-27 61,-61l0 -325c0,-34 -27,-61 -61,-61zm291 0c-34,0 -61,27 -61,61l0 325c0,34 27,61 61,61 34,0 61,-27 61,-61l0 -325c0,-34 -27,-61 -61,-61zm291 0c-34,0 -61,27 -61,61l0 325c0,34 27,61 61,61 34,0 61,-27 61,-61l0 -325c0,-34 -27,-61 -61,-61zm291 0c-34,0 -61,27 -61,61l0 325c0,34 27,61 61,61 34,0 61,-27 61,-61l0 -325c0,-34 -27,-61 -61,-61z"/>
    </g>
   </g>
   <path class="fil0" d="M928 1413l-113 0 0 -425c-41,39 -90,67 -146,86l0 -102c29,-10 61,-28 96,-55 35,-27 58,-58 71,-94l92 0 0 591z"/>
  </g>
 </g>
</svg>
