<?xml version="1.0" encoding="UTF-8"?>
<!DOCTYPE svg PUBLIC "-//W3C//DTD SVG 1.1//EN" "http://www.w3.org/Graphics/SVG/1.1/DTD/svg11.dtd">
<!-- Creator: CorelDRAW X6 -->
<svg xmlns="http://www.w3.org/2000/svg" xml:space="preserve" width="40.7948mm" height="30.0005mm" version="1.1" style="shape-rendering:geometricPrecision; text-rendering:geometricPrecision; image-rendering:optimizeQuality; fill-rule:evenodd; clip-rule:evenodd"
viewBox="0 0 4100 3015"
 xmlns:xlink="http://www.w3.org/1999/xlink">
 <defs>
  <style type="text/css">
   <![CDATA[
    .fil0 {fill:#D2D3D5}
   ]]>
  </style>
 </defs>
 <g id="Camada_x0020_1">
  <metadata id="CorelCorpID_0Corel-Layer"/>
  <g id="_827387280">
   <path class="fil0" d="M3462 1954l-2821 0 0 -1603c0,-32 26,-59 57,-59l2708 0c31,0 57,26 57,59l0 1603zm283 -1603c0,-194 -152,-351 -339,-351l-2708 0c-188,0 -340,157 -340,351l0 1895 3387 0 0 -1895z"/>
   <path class="fil0" d="M3771 2723l-325 0 0 -95 325 0c25,0 46,21 46,47 0,26 -20,47 -46,47zm-577 0l-379 0 0 -95 379 0 0 95zm-922 0l-457 0 0 -95 457 0 0 95zm-1631 0l-312 0c-25,0 -46,-21 -46,-47 0,-26 20,-47 46,-47l312 0 0 95zm3131 -387l-3443 0c-182,0 -329,152 -329,340 0,188 147,340 329,340l3443 0c182,0 329,-152 329,-340 0,-188 -147,-340 -329,-340z"/>
  </g>
 </g>
</svg>
