<?xml version="1.0" encoding="UTF-8"?>
<!DOCTYPE svg PUBLIC "-//W3C//DTD SVG 1.1//EN" "http://www.w3.org/Graphics/SVG/1.1/DTD/svg11.dtd">
<!-- Creator: CorelDRAW X6 -->
<svg xmlns="http://www.w3.org/2000/svg" xml:space="preserve" width="30mm" height="31.7122mm" version="1.1" style="shape-rendering:geometricPrecision; text-rendering:geometricPrecision; image-rendering:optimizeQuality; fill-rule:evenodd; clip-rule:evenodd"
viewBox="0 0 1150 1216"
 xmlns:xlink="http://www.w3.org/1999/xlink">
 <defs>
  <style type="text/css">
   <![CDATA[
    .fil0 {fill:#BDBFC1;fill-rule:nonzero}
   ]]>
  </style>
 </defs>
 <g id="Camada_x0020_1">
  <metadata id="CorelCorpID_0Corel-Layer"/>
  <g id="iconfinder_Untitled-1-17_2419679.ai">
   <polygon class="fil0" points="576,45 1040,199 1054,159 576,0 98,158 110,199 "/>
   <polygon class="fil0" points="1150,416 1150,329 629,175 628,180 628,180 628,180 626,185 628,185 628,1155 584,1155 584,68 471,107 471,1155 425,1155 425,120 312,161 311,1155 270,1155 270,172 156,210 156,1155 115,1155 115,220 1,255 0,1216 1150,1216 1150,1155 1098,1155 1098,405 "/>
  </g>
 </g>
</svg>
