<?xml version="1.0" encoding="UTF-8"?>
<!DOCTYPE svg PUBLIC "-//W3C//DTD SVG 1.1//EN" "http://www.w3.org/Graphics/SVG/1.1/DTD/svg11.dtd">
<!-- Creator: CorelDRAW X6 -->
<svg xmlns="http://www.w3.org/2000/svg" xml:space="preserve" width="30mm" height="30.0694mm" version="1.1" style="shape-rendering:geometricPrecision; text-rendering:geometricPrecision; image-rendering:optimizeQuality; fill-rule:evenodd; clip-rule:evenodd"
viewBox="0 0 1390 1393"
 xmlns:xlink="http://www.w3.org/1999/xlink">
 <defs>
  <style type="text/css">
   <![CDATA[
    .fil0 {fill:#BDBFC1;fill-rule:nonzero}
   ]]>
  </style>
 </defs>
 <g id="Camada_x0020_1">
  <metadata id="CorelCorpID_0Corel-Layer"/>
  <g id="iconfinder_architecture-interior-10_809113.ai">
   <path class="fil0" d="M1355 342l-604 -325c-23,-6 -35,-17 -58,-17 -23,0 -35,12 -58,17l-592 331c-29,12 -58,46 -35,81 23,35 58,29 81,17l23 -12 0 958 116 0 929 0 116 0 0 -958 12 6c23,17 81,23 99,-12 2,-4 4,-7 6,-11l0 -43c-6,-14 -19,-26 -35,-34zm-836 934c35,0 58,-23 58,-58l0 -58 232 0 0 58c0,35 23,58 58,58l-348 0zm-174 -290c0,-35 23,-58 58,-58l580 0c35,0 58,23 58,58l0 116 -58 0 -116 0 -348 0 -116 0 -58 0 0 -116zm116 -116l52 -174 371 0 46 174 -470 0zm406 290l116 0 0 58 -116 0 0 -58zm-464 0l116 0 0 58 -116 0 0 -58zm755 116l-174 0c35,0 58,-23 58,-58l0 -58c35,0 58,-23 58,-58l0 -116c0,-58 -46,-110 -104,-116l-70 -232 -464 0 -70 232c-58,6 -104,58 -104,116l0 116c0,35 23,58 58,58l0 58c0,35 23,58 58,58l-174 0 0 -905 464 -255 464 255 0 905z"/>
   <path class="fil0" d="M461 1016c0,16 -13,29 -29,29 -16,0 -29,-13 -29,-29 0,-16 13,-29 29,-29 16,0 29,13 29,29z"/>
   <path class="fil0" d="M983 1016c0,16 -13,29 -29,29 -16,0 -29,-13 -29,-29 0,-16 13,-29 29,-29 16,0 29,13 29,29z"/>
   <path class="fil0" d="M548 1045l290 0c17,0 29,-12 29,-29 0,-17 -12,-29 -29,-29l-290 0c-17,0 -29,12 -29,29 0,17 12,29 29,29z"/>
  </g>
 </g>
</svg>
