<?xml version="1.0" encoding="UTF-8"?>
<!DOCTYPE svg PUBLIC "-//W3C//DTD SVG 1.1//EN" "http://www.w3.org/Graphics/SVG/1.1/DTD/svg11.dtd">
<!-- Creator: CorelDRAW X6 -->
<svg xmlns="http://www.w3.org/2000/svg" xml:space="preserve" width="30.0011mm" height="32.1578mm" version="1.1" style="shape-rendering:geometricPrecision; text-rendering:geometricPrecision; image-rendering:optimizeQuality; fill-rule:evenodd; clip-rule:evenodd"
viewBox="0 0 879 942"
 xmlns:xlink="http://www.w3.org/1999/xlink">
 <defs>
  <style type="text/css">
   <![CDATA[
    .fil0 {fill:#BDBFC1}
   ]]>
  </style>
 </defs>
 <g id="Camada_x0020_1">
  <metadata id="CorelCorpID_0Corel-Layer"/>
  <g id="_884959200">
   <polygon class="fil0" points="870,942 0,942 0,908 870,908 "/>
   <path class="fil0" d="M257 461l0 400 153 0 0 -514 -19 -19 -133 133zm-204 205l0 195 153 0 0 -348 -153 153zm471 -235c-19,0 -39,-8 -52,-22l-10 -10 0 462 153 0 0 -490 -38 38c-14,14 -33,22 -52,22zm273 -242l-131 131 0 542 153 0 0 -651 -22 -22z"/>
   <path class="fil0" d="M56 612l0 0 0 0 0 0zm623 -590l62 62 -217 217 -106 -106c-15,-15 -40,-15 -55,0l-361 361 55 55 333 -333 106 106c7,7 17,11 28,11 10,0 20,-4 28,-11l245 -245 61 61 22 -200 -200 22z"/>
  </g>
 </g>
</svg>
