<?xml version="1.0" encoding="UTF-8"?>
<!DOCTYPE svg PUBLIC "-//W3C//DTD SVG 1.1//EN" "http://www.w3.org/Graphics/SVG/1.1/DTD/svg11.dtd">
<!-- Creator: CorelDRAW X6 -->
<svg xmlns="http://www.w3.org/2000/svg" xml:space="preserve" width="29.999mm" height="27.8589mm" version="1.1" style="shape-rendering:geometricPrecision; text-rendering:geometricPrecision; image-rendering:optimizeQuality; fill-rule:evenodd; clip-rule:evenodd"
viewBox="0 0 567 527"
 xmlns:xlink="http://www.w3.org/1999/xlink">
 <defs>
  <style type="text/css">
   <![CDATA[
    .fil0 {fill:#BDBFC1}
   ]]>
  </style>
 </defs>
 <g id="Camada_x0020_1">
  <metadata id="CorelCorpID_0Corel-Layer"/>
  <path class="fil0" d="M527 0l-486 0c-22,0 -41,18 -41,41l0 446c0,22 18,41 41,41l486 0c22,0 41,-18 41,-41l0 -446c0,-22 -18,-41 -41,-41zm-344 61l81 0 0 105 -81 68 0 -173zm122 0l81 0 0 2 -81 68 0 -71zm-239 0l77 0 0 207 -81 68 0 -272c0,-2 2,-4 4,-4zm-4 401l0 -72 390 -329 52 0c2,0 4,2 4,4l0 72 -390 329 -52 0c-2,0 -4,-2 -4,-4zm324 4l-81 0 0 -105 81 -68 0 173zm-122 0l-81 0 0 -2 81 -68 0 71zm239 0l-77 0 0 -207 81 -68 0 272c0,2 -2,4 -4,4z"/>
 </g>
</svg>
