<?xml version="1.0" encoding="UTF-8"?>
<!DOCTYPE svg PUBLIC "-//W3C//DTD SVG 1.1//EN" "http://www.w3.org/Graphics/SVG/1.1/DTD/svg11.dtd">
<!-- Creator: CorelDRAW X6 -->
<svg xmlns="http://www.w3.org/2000/svg" xml:space="preserve" width="28.9956mm" height="29.9995mm" version="1.1" style="shape-rendering:geometricPrecision; text-rendering:geometricPrecision; image-rendering:optimizeQuality; fill-rule:evenodd; clip-rule:evenodd"
viewBox="0 0 485 502"
 xmlns:xlink="http://www.w3.org/1999/xlink">
 <defs>
  <style type="text/css">
   <![CDATA[
    .fil0 {fill:#D2D3D5}
   ]]>
  </style>
 </defs>
 <g id="Camada_x0020_1">
  <metadata id="CorelCorpID_0Corel-Layer"/>
  <path class="fil0" d="M83 389l-35 0 -48 87 25 26 84 -50 0 -36 82 -85 -26 -27 -82 85zm306 -350l21 22 -111 115 15 15 112 -115 21 22 -111 115 14 14 118 -122c11,-11 18,-27 18,-44 0,-35 -27,-63 -61,-63 -17,0 -32,7 -43,18l-118 122 14 14 112 -115zm-173 96c1,-7 2,-14 2,-22 0,-62 -49,-113 -109,-113 -7,0 -14,1 -21,2l63 65c9,10 9,26 0,35l-51 53c-9,10 -25,10 -34,0l-63 -65c-1,7 -2,14 -2,22 0,62 49,113 109,113 7,0 14,-1 21,-2l251 260c11,11 26,18 43,18 33,0 61,-28 61,-63 0,-17 -7,-33 -18,-44l-251 -260zm208 348c-23,0 -42,-20 -42,-44 0,-24 19,-44 42,-44 23,0 42,20 42,44 0,24 -19,44 -42,44z"/>
 </g>
</svg>
