<?xml version="1.0" encoding="UTF-8"?>
<!DOCTYPE svg PUBLIC "-//W3C//DTD SVG 1.1//EN" "http://www.w3.org/Graphics/SVG/1.1/DTD/svg11.dtd">
<!-- Creator: CorelDRAW X6 -->
<svg xmlns="http://www.w3.org/2000/svg" xml:space="preserve" width="30mm" height="31.1119mm" version="1.1" style="shape-rendering:geometricPrecision; text-rendering:geometricPrecision; image-rendering:optimizeQuality; fill-rule:evenodd; clip-rule:evenodd"
viewBox="0 0 644 668"
 xmlns:xlink="http://www.w3.org/1999/xlink">
 <defs>
  <style type="text/css">
   <![CDATA[
    .fil0 {fill:#D2D3D5}
   ]]>
  </style>
 </defs>
 <g id="Camada_x0020_1">
  <metadata id="CorelCorpID_0Corel-Layer"/>
  <path class="fil0" d="M520 618c0,27 -22,49 -50,49l-421 0c-27,0 -50,-22 -50,-49l0 -247 0 -124c0,-27 22,-49 50,-49l50 0 0 49 -44 0c-3,0 -6,3 -6,6l0 360c0,3 3,6 6,6l410 0c3,0 6,-3 6,-6l0 -19 50 0 0 25zm74 -411l0 213 -62 0c-21,0 -37,17 -37,37l0 62 -316 0c-3,0 -6,-3 -6,-6l0 -360c0,-3 3,-6 6,-6l193 0 29 -29c-2,-7 -3,-14 -3,-21l-224 0c-27,0 -50,22 -50,49l0 247 0 124c0,27 22,49 50,49l331 0c10,0 19,-4 26,-11l102 -102c7,-7 11,-16 11,-26l0 -73 0 -193c-13,18 -30,33 -50,43zm-62 -208c-48,0 -87,39 -87,87 0,17 5,32 13,45l-64 64c0,0 -1,1 -1,1l-21 42c-1,2 -1,4 1,6 1,2 4,2 6,2l49 -15c1,0 2,-1 2,-1l66 -66c11,5 24,9 37,9 48,0 87,-39 87,-87 0,-48 -39,-87 -87,-87z"/>
 </g>
</svg>
