<?xml version="1.0" encoding="UTF-8"?>
<!DOCTYPE svg PUBLIC "-//W3C//DTD SVG 1.1//EN" "http://www.w3.org/Graphics/SVG/1.1/DTD/svg11.dtd">
<!-- Creator: CorelDRAW X6 -->
<svg xmlns="http://www.w3.org/2000/svg" xml:space="preserve" width="31.5002mm" height="30.1404mm" version="1.1" style="shape-rendering:geometricPrecision; text-rendering:geometricPrecision; image-rendering:optimizeQuality; fill-rule:evenodd; clip-rule:evenodd"
viewBox="0 0 4949 4735"
 xmlns:xlink="http://www.w3.org/1999/xlink">
 <defs>
  <style type="text/css">
   <![CDATA[
    .str0 {stroke:#D2D3D5;stroke-width:235.653}
    .fil0 {fill:none}
    .fil1 {fill:#D2D3D5}
   ]]>
  </style>
 </defs>
 <g id="Camada_x0020_1">
  <metadata id="CorelCorpID_0Corel-Layer"/>
  <path class="fil0 str0" d="M562 118l3825 0c245,0 444,190 444,423l0 2627c0,233 -199,423 -444,423l-1920 0 -1244 912 0 -912 -661 0c-245,0 -444,-190 -444,-423l0 -2627c0,-233 199,-423 444,-423z"/>
  <path class="fil1" d="M3973 1400c86,0 156,-66 156,-148l0 0c0,-82 -70,-148 -156,-148l0 0 -2997 0c-86,0 -156,66 -156,148l0 0c0,82 70,148 156,148l0 0 2997 0z"/>
  <path class="fil1" d="M3973 2088c86,0 156,-66 156,-148l0 0c0,-82 -70,-148 -156,-148l0 0 -2997 0c-86,0 -156,66 -156,148l0 0c0,82 70,148 156,148l0 0 2997 0z"/>
 </g>
</svg>
