<?xml version="1.0" encoding="UTF-8"?>
<!DOCTYPE svg PUBLIC "-//W3C//DTD SVG 1.1//EN" "http://www.w3.org/Graphics/SVG/1.1/DTD/svg11.dtd">
<!-- Creator: CorelDRAW X6 -->
<svg xmlns="http://www.w3.org/2000/svg" xml:space="preserve" width="29.998mm" height="29.975mm" version="1.1" style="shape-rendering:geometricPrecision; text-rendering:geometricPrecision; image-rendering:optimizeQuality; fill-rule:evenodd; clip-rule:evenodd"
viewBox="0 0 625 625"
 xmlns:xlink="http://www.w3.org/1999/xlink">
 <defs>
  <style type="text/css">
   <![CDATA[
    .fil0 {fill:#D2D3D5;fill-rule:nonzero}
   ]]>
  </style>
 </defs>
 <g id="Camada_x0020_1">
  <metadata id="CorelCorpID_0Corel-Layer"/>
  <path id="iconfinder_internt_web_technology-13_274900.ai" class="fil0" d="M421 269l0 -24c0,-60 -49,-108 -108,-108 -60,0 -108,49 -108,108l0 24c0,60 49,108 108,108 60,0 108,-49 108,-108zm-108 -269c-173,0 -313,140 -313,313 0,91 38,172 100,229 56,52 125,79 195,83l-47 -45 48 -108 -51 -41 -140 45c-35,-45 -57,-102 -57,-163 0,-146 119,-265 265,-265 146,0 265,119 265,265 0,61 -21,118 -56,163l-141 -45 -51 41 48 108 -47 45c72,-4 141,-33 195,-83 62,-57 100,-139 100,-229 0,-173 -140,-313 -313,-313z"/>
 </g>
</svg>
