<?xml version="1.0" encoding="UTF-8"?>
<!DOCTYPE svg PUBLIC "-//W3C//DTD SVG 1.1//EN" "http://www.w3.org/Graphics/SVG/1.1/DTD/svg11.dtd">
<!-- Creator: CorelDRAW X6 -->
<svg xmlns="http://www.w3.org/2000/svg" xml:space="preserve" width="30mm" height="30.0695mm" version="1.1" style="shape-rendering:geometricPrecision; text-rendering:geometricPrecision; image-rendering:optimizeQuality; fill-rule:evenodd; clip-rule:evenodd"
viewBox="0 0 619 620"
 xmlns:xlink="http://www.w3.org/1999/xlink">
 <defs>
  <style type="text/css">
   <![CDATA[
    .fil0 {fill:#D2D3D5}
   ]]>
  </style>
 </defs>
 <g id="Camada_x0020_1">
  <metadata id="CorelCorpID_0Corel-Layer"/>
  <g id="_1124769168">
   <path class="fil0" d="M172 451c0,0 -89,31 -110,43 -21,12 -48,79 -62,127 109,0 282,0 282,0l14 -58 -24 -37 38 -41 -105 -75 -32 41z"/>
   <path class="fil0" d="M422 585l13 -13c14,11 29,2 29,2 0,0 15,9 29,-2l13 13c0,0 -9,16 -4,29 1,2 2,4 2,6 39,0 80,0 114,0 -14,-47 -41,-115 -62,-127 -21,-12 -110,-43 -110,-43l-32 -41 -105 75 38 41 -24 37 14 58c0,0 37,0 87,0 1,-2 1,-4 2,-6 6,-13 -4,-29 -4,-29z"/>
   <path class="fil0" d="M309 155c0,0 84,-6 137,16 0,0 -21,16 -33,18 0,0 -30,-10 -104,-10 -74,0 -104,10 -104,10 -12,-1 -33,-18 -33,-18 53,-22 137,-16 137,-16zm-42 -109l13 -13c14,11 29,2 29,2 0,0 15,9 29,-2l13 13c0,0 -9,16 -4,29 6,13 7,26 -8,37 -15,11 -26,10 -31,17 -5,-7 -16,-6 -31,-17 -15,-11 -14,-24 -8,-37 6,-13 -4,-29 -4,-29zm-111 108c-2,26 1,275 154,275 153,0 155,-249 154,-275 -2,-26 56,-32 24,-79 -68,-78 -178,-75 -178,-75 0,0 -110,-3 -178,75 -32,47 26,53 24,79z"/>
  </g>
 </g>
</svg>
