<?xml version="1.0" encoding="UTF-8"?>
<!DOCTYPE svg PUBLIC "-//W3C//DTD SVG 1.1//EN" "http://www.w3.org/Graphics/SVG/1.1/DTD/svg11.dtd">
<!-- Creator: CorelDRAW X6 -->
<svg xmlns="http://www.w3.org/2000/svg" xml:space="preserve" width="30mm" height="19.3196mm" version="1.1" style="shape-rendering:geometricPrecision; text-rendering:geometricPrecision; image-rendering:optimizeQuality; fill-rule:evenodd; clip-rule:evenodd"
viewBox="0 0 554 357"
 xmlns:xlink="http://www.w3.org/1999/xlink">
 <defs>
  <style type="text/css">
   <![CDATA[
    .fil0 {fill:#BDBFC1}
   ]]>
  </style>
    <clipPath id="id0">
     <path d="M518 0l-134 0 0 39c0,11 -9,20 -20,20l-174 0c-11,0 -20,-9 -20,-20l0 -39 -134 0c-20,0 -36,17 -36,38l0 281c0,21 16,38 36,38l482 0c20,0 36,-17 36,-38l0 -281c0,-21 -16,-38 -36,-38zm-407 143c0,-1 0,-2 1,-3 0,-11 3,-22 6,-29 5,-10 18,-15 31,-15 13,0 29,6 33,17 2,7 4,18 4,28 0,1 1,2 1,3l0 20c0,3 -2,5 -4,5 -4,14 -18,32 -33,32 -15,0 -28,-18 -33,-32 -3,0 -4,-3 -4,-5l0 -20zm-52 155c0,-1 0,-51 0,-52 1,-31 26,-25 52,-34 5,-2 10,-4 11,-6 2,10 24,31 25,55 0,-25 24,-42 25,-55 2,1 7,4 12,6 26,7 52,3 52,34 0,1 0,51 0,52l-178 0zm437 -130l-201 0 0 -24 201 0 0 24zm0 -53l-201 0 0 -24 201 0 0 24z"/>
    </clipPath>
 </defs>
 <g id="Camada_x0020_1">
  <metadata id="CorelCorpID_0Corel-Layer"/>
  <g id="_1118994512">
   <g style="clip-path:url(#id0)">
    <image transform="matrix(0 0.646915 0.646868 0 -1011.1 -2267.63)" x="1500" y="1550" width="114" height="882" xlink:href="Identificacao_Images\Identificacao_ImgID1.png"/>
   </g>
   <path class="fil0" d="M518 0l-134 0 0 39c0,11 -9,20 -20,20l-174 0c-11,0 -20,-9 -20,-20l0 -39 -134 0c-20,0 -36,17 -36,38l0 281c0,21 16,38 36,38l482 0c20,0 36,-17 36,-38l0 -281c0,-21 -16,-38 -36,-38zm-407 143c0,-1 0,-2 1,-3 0,-11 3,-22 6,-29 5,-10 18,-15 31,-15 13,0 29,6 33,17 2,7 4,18 4,28 0,1 1,2 1,3l0 20c0,3 -2,5 -4,5 -4,14 -18,32 -33,32 -15,0 -28,-18 -33,-32 -3,0 -4,-3 -4,-5l0 -20zm-52 155c0,-1 0,-51 0,-52 1,-31 26,-25 52,-34 5,-2 10,-4 11,-6 2,10 24,31 25,55 0,-25 24,-42 25,-55 2,1 7,4 12,6 26,7 52,3 52,34 0,1 0,51 0,52l-178 0zm437 -130l-201 0 0 -24 201 0 0 24zm0 -53l-201 0 0 -24 201 0 0 24z"/>
   <rect class="fil0" x="155" width="254" height="60"/>
  </g>
 </g>
</svg>
