<?xml version="1.0" encoding="UTF-8"?>
<!DOCTYPE svg PUBLIC "-//W3C//DTD SVG 1.1//EN" "http://www.w3.org/Graphics/SVG/1.1/DTD/svg11.dtd">
<!-- Creator: CorelDRAW X6 -->
<svg xmlns="http://www.w3.org/2000/svg" xml:space="preserve" width="29.9999mm" height="29.8383mm" version="1.1" style="shape-rendering:geometricPrecision; text-rendering:geometricPrecision; image-rendering:optimizeQuality; fill-rule:evenodd; clip-rule:evenodd"
viewBox="0 0 799 795"
 xmlns:xlink="http://www.w3.org/1999/xlink">
 <defs>
  <style type="text/css">
   <![CDATA[
    .fil0 {fill:#BDBFC1}
   ]]>
  </style>
 </defs>
 <g id="Camada_x0020_1">
  <metadata id="CorelCorpID_0Corel-Layer"/>
  <g id="_1056023712">
   <path class="fil0" d="M315 795c53,0 104,-7 148,-20 17,13 40,20 66,20 54,0 95,-33 96,-76l2 -68c3,-9 4,-19 4,-28l0 -1c52,-53 97,-101 119,-148 43,-29 50,-64 50,-83l0 -28c0,-27 -13,-77 -101,-108 -20,-7 -43,-13 -68,-17l0 -64c0,-95 -141,-173 -315,-173 -174,0 -315,77 -315,173l0 69c0,85 112,156 260,170 5,19 17,41 47,62 1,3 3,5 4,8 -156,-1 -284,-64 -308,-146 -3,9 -4,18 -4,27l0 69c0,95 141,173 315,173 31,0 60,-2 88,-7 9,9 17,18 27,27l1 34c-36,8 -75,12 -116,12 -157,0 -287,-63 -311,-146 -3,9 -4,18 -4,27l0 69c0,95 141,173 315,173zm172 -194c-53,-53 -118,-118 -133,-166 -24,-12 -39,-27 -39,-44l0 -28c0,-42 95,-76 213,-76 118,0 213,34 213,76l0 28c0,16 -14,31 -39,44 -16,48 -80,113 -133,166l-3 117c0,11 -17,20 -38,20 -21,0 -38,-9 -38,-20l-3 -117z"/>
   <path class="fil0" d="M669 362c0,-15 -85,-31 -141,-31 -51,0 -141,16 -141,31 0,15 85,27 141,27 51,0 141,-11 141,-27z"/>
  </g>
 </g>
</svg>
