<?xml version="1.0" encoding="UTF-8"?>
<!DOCTYPE svg PUBLIC "-//W3C//DTD SVG 1.1//EN" "http://www.w3.org/Graphics/SVG/1.1/DTD/svg11.dtd">
<!-- Creator: CorelDRAW X6 -->
<svg xmlns="http://www.w3.org/2000/svg" xml:space="preserve" width="30mm" height="26.0892mm" version="1.1" style="shape-rendering:geometricPrecision; text-rendering:geometricPrecision; image-rendering:optimizeQuality; fill-rule:evenodd; clip-rule:evenodd"
viewBox="0 0 5398 4694"
 xmlns:xlink="http://www.w3.org/1999/xlink">
 <defs>
  <style type="text/css">
   <![CDATA[
    .fil0 {fill:#BDBFC1}
   ]]>
  </style>
 </defs>
 <g id="Camada_x0020_1">
  <metadata id="CorelCorpID_0Corel-Layer"/>
  <path class="fil0" d="M4459 3286l0 -3286c-642,0 -1283,264 -1643,704l0 3286c359,-440 1001,-704 1643,-704zm-1878 704l0 -3286c-359,-440 -1001,-704 -1643,-704l0 3286c642,0 1284,264 1643,704zm2582 -3521l0 3521c-978,0 -1584,69 -2347,469 557,-590 1144,-704 2112,-704l0 -3521 -235 0 0 3286c-861,0 -1394,180 -1878,704l-235 0c-484,-524 -1017,-704 -1878,-704l0 -3286 -235 0 0 3521c968,0 1555,114 2112,704 -763,-401 -1369,-469 -2347,-469l0 -3521 -235 0c0,0 0,3546 0,3755 0,143 103,235 235,235 154,0 1408,-235 2347,235l235 0c939,-469 2193,-235 2347,-235 132,0 235,-92 235,-235 0,-209 0,-3755 0,-3755l-235 0z"/>
 </g>
</svg>
