<?xml version="1.0" encoding="UTF-8"?>
<!DOCTYPE svg PUBLIC "-//W3C//DTD SVG 1.1//EN" "http://www.w3.org/Graphics/SVG/1.1/DTD/svg11.dtd">
<!-- Creator: CorelDRAW X6 -->
<svg xmlns="http://www.w3.org/2000/svg" xml:space="preserve" width="30.0012mm" height="26.0902mm" version="1.1" style="shape-rendering:geometricPrecision; text-rendering:geometricPrecision; image-rendering:optimizeQuality; fill-rule:evenodd; clip-rule:evenodd"
viewBox="0 0 571 496"
 xmlns:xlink="http://www.w3.org/1999/xlink">
 <defs>
  <style type="text/css">
   <![CDATA[
    .fil0 {fill:#BDBFC1}
   ]]>
  </style>
 </defs>
 <g id="Camada_x0020_1">
  <metadata id="CorelCorpID_0Corel-Layer"/>
  <path class="fil0" d="M471 347l0 -347c-68,0 -136,28 -174,74l0 347c38,-47 106,-74 174,-74zm-198 74l0 -347c-38,-47 -106,-74 -174,-74l0 347c68,0 136,28 174,74zm273 -372l0 372c-103,0 -167,7 -248,50 59,-62 121,-74 223,-74l0 -372 -25 0 0 347c-91,0 -147,19 -198,74l-25 0c-51,-55 -108,-74 -198,-74l0 -347 -25 0 0 372c102,0 164,12 223,74 -81,-42 -145,-50 -248,-50l0 -372 -25 0c0,0 0,375 0,397 0,15 11,25 25,25 16,0 149,-25 248,25l25 0c99,-50 232,-25 248,-25 14,0 25,-10 25,-25 0,-22 0,-397 0,-397l-25 0z"/>
 </g>
</svg>
