<?xml version="1.0" encoding="UTF-8"?>
<!DOCTYPE svg PUBLIC "-//W3C//DTD SVG 1.1//EN" "http://www.w3.org/Graphics/SVG/1.1/DTD/svg11.dtd">
<!-- Creator: CorelDRAW X6 -->
<svg xmlns="http://www.w3.org/2000/svg" xml:space="preserve" width="29.9989mm" height="32.6843mm" version="1.1" style="shape-rendering:geometricPrecision; text-rendering:geometricPrecision; image-rendering:optimizeQuality; fill-rule:evenodd; clip-rule:evenodd"
viewBox="0 0 4056 4419"
 xmlns:xlink="http://www.w3.org/1999/xlink">
 <defs>
  <style type="text/css">
   <![CDATA[
    .fil0 {fill:#D2D3D5}
   ]]>
  </style>
 </defs>
 <g id="Camada_x0020_1">
  <metadata id="CorelCorpID_0Corel-Layer"/>
  <g id="_887916512">
   <path class="fil0" d="M2028 2093c-177,0 -320,-100 -320,-224l0 -1645c0,-124 143,-224 320,-224 177,0 320,100 320,224l0 1645c0,124 -143,224 -320,224l0 0z"/>
   <path class="fil0" d="M2877 552l0 746c327,254 539,649 539,1094 0,765 -622,1388 -1388,1388 -765,0 -1388,-622 -1388,-1388 0,-438 205,-827 523,-1081l0 -750c-687,325 -1164,1023 -1164,1832 0,1118 910,2028 2028,2028 1118,0 2028,-910 2028,-2028 0,-815 -484,-1517 -1179,-1839z"/>
  </g>
 </g>
</svg>
