<?xml version="1.0" encoding="UTF-8"?>
<!DOCTYPE svg PUBLIC "-//W3C//DTD SVG 1.1//EN" "http://www.w3.org/Graphics/SVG/1.1/DTD/svg11.dtd">
<!-- Creator: CorelDRAW X6 -->
<svg xmlns="http://www.w3.org/2000/svg" xml:space="preserve" width="21.5441mm" height="23.5356mm" version="1.1" style="shape-rendering:geometricPrecision; text-rendering:geometricPrecision; image-rendering:optimizeQuality; fill-rule:evenodd; clip-rule:evenodd"
viewBox="0 0 770 841"
 xmlns:xlink="http://www.w3.org/1999/xlink">
 <defs>
  <style type="text/css">
   <![CDATA[
    .fil0 {fill:#BDBFC1}
   ]]>
  </style>
 </defs>
 <g id="Camada_x0020_1">
  <metadata id="CorelCorpID_0Corel-Layer"/>
  <path class="fil0" d="M587 268c0,-126 -91,-205 -202,-205 -112,0 -202,79 -202,205 0,126 91,252 202,252 112,0 202,-126 202,-252zm-35 325c-18,15 -40,26 -59,34l32 110 -141 -76 -141 76 45 -155c-207,20 -266,108 -290,222 91,21 214,35 350,36l28 -129 21 0 28 128c134,-3 253,-16 342,-37 -21,-99 -69,-178 -217,-210zm-387 -198l-14 -126 1 0c1,-138 97,-235 233,-235 136,1 232,98 233,235l0 0 -7 68 -3 0c-3,115 -73,210 -173,237 -7,-21 -27,-36 -50,-36 -29,0 -53,24 -53,53 0,29 24,53 53,53 23,0 42,-14 49,-35 103,-24 178,-108 200,-214 45,-9 81,-46 86,-94 6,-55 -30,-104 -83,-116 -12,-41 -34,-78 -63,-107 -47,-48 -114,-76 -190,-76 -76,0 -143,28 -190,76 -29,29 -50,65 -63,107 -53,12 -89,61 -83,116 6,58 58,101 117,96z"/>
 </g>
</svg>
