<?xml version="1.0" encoding="UTF-8"?>
<!DOCTYPE svg PUBLIC "-//W3C//DTD SVG 1.1//EN" "http://www.w3.org/Graphics/SVG/1.1/DTD/svg11.dtd">
<!-- Creator: CorelDRAW X6 -->
<svg xmlns="http://www.w3.org/2000/svg" xml:space="preserve" width="29.9994mm" height="29.9899mm" version="1.1" style="shape-rendering:geometricPrecision; text-rendering:geometricPrecision; image-rendering:optimizeQuality; fill-rule:evenodd; clip-rule:evenodd"
viewBox="0 0 3738 3737"
 xmlns:xlink="http://www.w3.org/1999/xlink">
 <defs>
  <style type="text/css">
   <![CDATA[
    .fil0 {fill:#BDBFC1}
   ]]>
  </style>
 </defs>
 <g id="Camada_x0020_1">
  <metadata id="CorelCorpID_0Corel-Layer"/>
  <path class="fil0" d="M639 2050c-389,-389 -389,-1022 0,-1411 389,-389 1022,-389 1411,0 389,389 389,1022 0,1411 -389,389 -1022,389 -1411,0zm1657 -1656c-525,-525 -1376,-525 -1901,0 -525,525 -525,1376 0,1901 477,477 1224,520 1750,130l126 125c-51,58 -57,139 -10,186l969 968c49,49 136,42 194,-17l266 -266c58,-58 66,-145 17,-194l-969 -968c-47,-47 -128,-42 -186,10l-125 -125c390,-526 347,-1272 -130,-1749z"/>
 </g>
</svg>
