<?xml version="1.0" encoding="UTF-8"?>
<!DOCTYPE svg PUBLIC "-//W3C//DTD SVG 1.1//EN" "http://www.w3.org/Graphics/SVG/1.1/DTD/svg11.dtd">
<!-- Creator: CorelDRAW X6 -->
<svg xmlns="http://www.w3.org/2000/svg" xml:space="preserve" width="21.4833mm" height="22.7441mm" version="1.1" style="shape-rendering:geometricPrecision; text-rendering:geometricPrecision; image-rendering:optimizeQuality; fill-rule:evenodd; clip-rule:evenodd"
viewBox="0 0 360 382"
 xmlns:xlink="http://www.w3.org/1999/xlink">
 <defs>
  <style type="text/css">
   <![CDATA[
    .fil0 {fill:#BDBFC1}
   ]]>
  </style>
 </defs>
 <g id="Camada_x0020_1">
  <metadata id="CorelCorpID_0Corel-Layer"/>
  <path class="fil0" d="M115 76c-2,-13 3,-15 10,-15 -4,-38 12,-53 39,-53 0,0 -1,-8 12,-8 27,0 65,17 59,61 7,0 12,2 10,15 -3,16 -8,19 -16,19 -4,27 -30,48 -49,48 -19,0 -45,-21 -49,-48 -8,0 -13,-3 -16,-19zm180 162c0,-11 0,-25 0,-32 0,-33 -42,-32 -69,-48l-22 63 -16 -32c6,-3 9,-12 9,-20 0,-8 -5,-11 -16,-11 -11,0 -16,3 -16,11 0,8 3,17 9,20l-16 32 -22 -63c-27,16 -69,15 -69,48 0,7 0,21 0,32l229 0zm66 28l0 23c0,7 -6,13 -13,13l-20 0 0 64c0,9 -7,16 -16,16l-262 0c-9,0 -16,-7 -16,-16l0 -64 -20 0c-7,0 -13,-6 -13,-13l0 -23c0,-7 6,-13 13,-13l335 0c7,0 13,6 13,13z"/>
 </g>
</svg>
