<?xml version="1.0" encoding="UTF-8"?>
<!DOCTYPE svg PUBLIC "-//W3C//DTD SVG 1.1//EN" "http://www.w3.org/Graphics/SVG/1.1/DTD/svg11.dtd">
<!-- Creator: CorelDRAW X6 -->
<svg xmlns="http://www.w3.org/2000/svg" xml:space="preserve" width="32mm" height="32mm" version="1.1" style="shape-rendering:geometricPrecision; text-rendering:geometricPrecision; image-rendering:optimizeQuality; fill-rule:evenodd; clip-rule:evenodd"
viewBox="0 0 659 659"
 xmlns:xlink="http://www.w3.org/1999/xlink">
 <defs>
  <style type="text/css">
   <![CDATA[
    .str0 {stroke:#BEBEBE;stroke-width:41.173}
    .fil0 {fill:none}
    .fil1 {fill:#BEBEBE}
   ]]>
  </style>
 </defs>
 <g id="Camada_x0020_1">
  <metadata id="CorelCorpID_0Corel-Layer"/>
  <circle class="fil0 str0" cx="329" cy="329" r="309"/>
  <path class="fil1" d="M270 454l-91 -122 0 0c-11,-15 -8,-37 7,-49l0 0c15,-11 37,-8 49,7l0 0 63 84 127 -170c11,-15 33,-19 49,-7l0 0c15,11 19,33 7,49l0 0 -155 208c-7,9 -17,14 -28,14l0 0c-11,0 -21,-5 -28,-14l0 0z"/>
 </g>
</svg>
