<?xml version="1.0" encoding="UTF-8"?>
<!DOCTYPE svg PUBLIC "-//W3C//DTD SVG 1.1//EN" "http://www.w3.org/Graphics/SVG/1.1/DTD/svg11.dtd">
<!-- Creator: CorelDRAW X6 -->
<svg xmlns="http://www.w3.org/2000/svg" xml:space="preserve" width="31.0162mm" height="30mm" version="1.1" style="shape-rendering:geometricPrecision; text-rendering:geometricPrecision; image-rendering:optimizeQuality; fill-rule:evenodd; clip-rule:evenodd"
viewBox="0 0 3122 3020"
 xmlns:xlink="http://www.w3.org/1999/xlink">
 <defs>
  <style type="text/css">
   <![CDATA[
    .fil0 {fill:#D2D3D5}
   ]]>
  </style>
 </defs>
 <g id="Camada_x0020_1">
  <metadata id="CorelCorpID_0Corel-Layer"/>
  <g id="_827426752">
   <path class="fil0" d="M27 1253c-48,-72 -30,-170 39,-219l0 0 1409 -1005c52,-37 121,-37 173,0l0 0 1409 1005c69,49 87,148 39,219l0 0c-48,72 -143,90 -212,40l0 0 -1322 -944 -1322 944 0 0c-26,19 -57,28 -86,28l0 0c-48,0 -96,-24 -126,-68l0 0z"/>
   <path class="fil0" d="M2675 3020l-829 0 0 -944 -568 0 0 944 -830 0 0 -1718 1098 -768 1129 768 0 1719zm-705 -129l580 0 0 -1520 -1003 -682 -974 682 0 1520 580 0 0 -944 818 0 0 944z"/>
  </g>
 </g>
</svg>
