<?xml version="1.0" encoding="UTF-8"?>
<!DOCTYPE svg PUBLIC "-//W3C//DTD SVG 1.1//EN" "http://www.w3.org/Graphics/SVG/1.1/DTD/svg11.dtd">
<!-- Creator: CorelDRAW X6 -->
<svg xmlns="http://www.w3.org/2000/svg" xml:space="preserve" width="29.9988mm" height="20.22mm" version="1.1" style="shape-rendering:geometricPrecision; text-rendering:geometricPrecision; image-rendering:optimizeQuality; fill-rule:evenodd; clip-rule:evenodd"
viewBox="0 0 573 386"
 xmlns:xlink="http://www.w3.org/1999/xlink">
 <defs>
  <style type="text/css">
   <![CDATA[
    .fil0 {fill:#BDBFC1}
   ]]>
  </style>
 </defs>
 <g id="Camada_x0020_1">
  <metadata id="CorelCorpID_0Corel-Layer"/>
  <path class="fil0" d="M479 0c-10,7 -35,21 -35,21 39,5 91,47 97,116 10,-9 27,-23 33,-28 -6,-58 -59,-100 -94,-108zm-33 246c-4,4 -5,10 -1,15 4,5 3,13 0,17 -2,2 -7,5 -13,5 -2,0 -5,0 -8,-3 0,0 0,0 -1,-1l-122 -104 0 0c-4,-4 -11,-3 -15,1 -4,4 -3,11 1,15l0 0 1 1 121 103c0,0 0,0 0,0 0,0 1,1 1,3 0,6 -4,15 -9,20 -6,6 -17,2 -19,1l-107 -97c-4,-4 -11,-4 -15,1 -4,4 -3,11 1,14 0,0 0,0 0,0l0 0 0 0 95 89c3,3 0,13 -4,17 -4,5 -16,2 -18,1l-83 -80c0,0 0,0 0,0 -4,-4 -10,-4 -14,0 -4,4 -4,11 0,15l62 62c2,2 3,5 3,9 0,3 -2,6 -4,8l-2 1c-5,4 -13,12 -34,-5 -4,-4 -11,-3 -15,1 -4,4 -3,11 1,15 12,10 24,16 35,16 9,0 18,-4 27,-11 5,-4 8,-9 10,-15 5,5 14,8 23,8 1,0 1,0 2,0 10,0 17,-4 22,-10 4,-4 8,-11 9,-18 4,2 10,3 15,3 8,0 17,-2 23,-9 7,-7 14,-19 15,-31 0,0 0,0 0,0 1,0 1,0 2,0 11,0 22,-5 28,-12 9,-11 11,-31 0,-44 -4,-4 -10,-5 -15,-1zm-20 -209c-8,5 -35,16 -52,20 -13,3 -82,-25 -94,-27 -12,-2 -110,35 -118,50 -8,15 31,42 64,35 34,-7 43,-16 51,-10 8,6 110,100 161,127 33,17 75,-68 86,-82 -8,-37 -38,-108 -99,-113zm-195 280c-6,-4 -13,-5 -19,-3l0 0c8,-10 6,-24 -3,-31 -6,-5 -14,-6 -21,-4 4,-9 2,-20 -6,-27 -10,-8 -24,-6 -31,4l-3 4c0,-5 -2,-11 -6,-15 -8,-9 -22,-10 -32,-2l-20 18c-9,8 -10,22 -2,32 4,5 11,8 17,8 5,0 12,16 21,23 4,3 9,5 14,5 4,0 14,11 20,16 4,3 9,5 14,5 5,0 16,12 23,17 4,3 8,4 13,4 7,0 14,-3 18,-9l9 -12c7,-10 5,-24 -5,-31zm-128 -92c-24,-14 -57,-41 -75,-66 -6,-31 44,-92 72,-103 3,0 28,7 43,14 9,-9 26,-19 26,-19 -50,-22 -69,-24 -74,-23 -1,0 -1,0 -2,0 -41,14 -104,92 -90,139 0,2 1,3 2,4 21,29 51,55 79,71l21 -20z"/>
 </g>
</svg>
