<?xml version="1.0" encoding="UTF-8"?>
<!DOCTYPE svg PUBLIC "-//W3C//DTD SVG 1.1//EN" "http://www.w3.org/Graphics/SVG/1.1/DTD/svg11.dtd">
<!-- Creator: CorelDRAW X6 -->
<svg xmlns="http://www.w3.org/2000/svg" xml:space="preserve" width="30mm" height="30mm" version="1.1" style="shape-rendering:geometricPrecision; text-rendering:geometricPrecision; image-rendering:optimizeQuality; fill-rule:evenodd; clip-rule:evenodd"
viewBox="0 0 569 569"
 xmlns:xlink="http://www.w3.org/1999/xlink">
 <defs>
  <style type="text/css">
   <![CDATA[
    .str0 {stroke:#BDBFC1;stroke-width:10.6536;stroke-linecap:round;stroke-linejoin:round}
    .fil0 {fill:none}
    .fil1 {fill:#BDBFC1}
    .fil2 {fill:#D2D3D5}
   ]]>
  </style>
 </defs>
 <g id="Camada_x0020_1">
  <metadata id="CorelCorpID_0Corel-Layer"/>
  <g id="_1128214096">
   <g>
    <g>
     <polygon class="fil0 str0" points="493,493 325,493 350,469 285,403 403,285 469,350 493,325 "/>
     <polygon class="fil0 str0" points="76,76 76,244 100,219 166,285 285,166 219,100 244,76 "/>
    </g>
    <g>
     <polygon class="fil0 str0" points="493,76 493,244 469,219 403,285 285,166 350,100 325,76 "/>
     <polygon class="fil0 str0" points="76,493 244,493 219,469 285,403 166,285 100,350 76,325 "/>
    </g>
   </g>
   <path class="fil1" d="M98 138c-2,-1 -3,-3 -3,-4l0 0 0 -35c0,-1 1,-2 2,-2l0 0 35 0c2,0 4,2 4,3l0 0c1,2 0,3 -2,3l0 0 -33 0 0 33 0 0c0,1 0,1 -1,2l0 0c-1,1 -2,1 -3,0l0 0z"/>
   <path class="fil1" d="M467 138c2,-1 3,-3 3,-4l0 0 0 -35c0,-1 -1,-2 -2,-2l0 0 -35 0c-2,0 -4,2 -4,3l0 0c-1,2 0,3 2,3l0 0 33 0 0 33 0 0c0,1 0,1 1,2l0 0c1,1 2,1 3,0l0 0z"/>
   <path class="fil1" d="M98 434c-2,1 -3,3 -3,4l0 0 0 35c0,1 1,2 2,2l0 0 35 0c2,0 4,-2 4,-3l0 0c1,-2 0,-3 -2,-3l0 0 -33 0 0 -33 0 0c0,-1 0,-1 -1,-2l0 0c-1,-1 -2,-1 -3,0l0 0z"/>
   <path class="fil1" d="M467 434c2,1 3,3 3,4l0 0 0 35c0,1 -1,2 -2,2l0 0 -35 0c-2,0 -4,-2 -4,-3l0 0c-1,-2 0,-3 2,-3l0 0 33 0 0 -33 0 0c0,-1 0,-1 1,-2l0 0c1,-1 2,-1 3,0l0 0z"/>
   <path class="fil1" d="M528 0c22,0 41,22 41,48l0 473c0,27 -18,48 -41,48l-488 0c-22,0 -41,-22 -41,-48l0 -473c0,-27 18,-48 41,-48l488 0zm0 34l-488 0c-7,0 -12,7 -12,15l0 473c0,8 5,15 12,15l488 0c7,0 12,-7 12,-15l0 -473c0,-8 -5,-15 -12,-15l0 0z"/>
   <polygon class="fil2" points="285,389 389,285 285,180 180,285 "/>
  </g>
 </g>
</svg>
