<?xml version="1.0" encoding="UTF-8"?>
<!DOCTYPE svg PUBLIC "-//W3C//DTD SVG 1.1//EN" "http://www.w3.org/Graphics/SVG/1.1/DTD/svg11.dtd">
<!-- Creator: CorelDRAW X6 -->
<svg xmlns="http://www.w3.org/2000/svg" xml:space="preserve" width="29.9998mm" height="38.7146mm" version="1.1" style="shape-rendering:geometricPrecision; text-rendering:geometricPrecision; image-rendering:optimizeQuality; fill-rule:evenodd; clip-rule:evenodd"
viewBox="0 0 522 673"
 xmlns:xlink="http://www.w3.org/1999/xlink">
 <defs>
  <style type="text/css">
   <![CDATA[
    .fil0 {fill:#BDBFC1}
   ]]>
  </style>
 </defs>
 <g id="Camada_x0020_1">
  <metadata id="CorelCorpID_0Corel-Layer"/>
  <g id="_887283776">
   <path class="fil0" d="M261 0c-144,0 -261,117 -261,261 0,183 261,413 261,413 0,0 261,-250 261,-413 0,-144 -117,-261 -261,-261zm0 463c-115,0 -208,-93 -208,-208 0,-115 93,-208 208,-208 115,0 208,93 208,208 0,115 -93,208 -208,208z"/>
   <path class="fil0" d="M261 82c96,0 173,78 173,173 0,96 -78,173 -173,173 -96,0 -173,-78 -173,-173 0,-96 78,-173 173,-173l0 0zm0 27c-81,0 -147,66 -147,147 0,81 66,147 147,147 81,0 147,-66 147,-147 0,-81 -66,-147 -147,-147l0 0z"/>
   <path class="fil0" d="M261 82c96,0 173,78 173,173 0,96 -78,173 -173,173 -96,0 -173,-78 -173,-173 0,-96 78,-173 173,-173l0 0zm0 27c-81,0 -147,66 -147,147 0,81 66,147 147,147 81,0 147,-66 147,-147 0,-81 -66,-147 -147,-147l0 0z"/>
  </g>
 </g>
</svg>
