<?xml version="1.0" encoding="UTF-8"?>
<!DOCTYPE svg PUBLIC "-//W3C//DTD SVG 1.1//EN" "http://www.w3.org/Graphics/SVG/1.1/DTD/svg11.dtd">
<!-- Creator: CorelDRAW X6 -->
<svg xmlns="http://www.w3.org/2000/svg" xml:space="preserve" width="21.9179mm" height="26.0892mm" version="1.1" style="shape-rendering:geometricPrecision; text-rendering:geometricPrecision; image-rendering:optimizeQuality; fill-rule:evenodd; clip-rule:evenodd"
viewBox="0 0 1735 2065"
 xmlns:xlink="http://www.w3.org/1999/xlink">
 <defs>
  <style type="text/css">
   <![CDATA[
    .fil0 {fill:#BDBFC1;fill-rule:nonzero}
   ]]>
  </style>
 </defs>
 <g id="Camada_x0020_1">
  <metadata id="CorelCorpID_0Corel-Layer"/>
  <path class="fil0" d="M862 0c-424,0 -862,224 -862,224 0,0 0,829 0,998 0,409 872,842 872,842 0,0 862,-444 862,-852 0,-339 0,-993 0,-993 0,0 -444,-219 -872,-219zm650 1213l0 0c0,66 -89,210 -338,399 -112,85 -226,155 -304,201 -79,-45 -194,-114 -308,-197 -252,-185 -341,-327 -341,-392l0 -854c145,-59 400,-146 641,-146 244,0 503,85 650,143l0 847zm-1143 -283l0 0 627 627c31,-21 60,-43 88,-64 2,-2 4,-3 6,-4l-721 -721 0 162zm0 287l0 0 10 17c15,26 79,120 270,261 55,41 116,81 179,121l39 24 30 -19 -530 -530 0 126zm0 -747l0 0 0 137 811 811c34,-29 61,-55 84,-78l-875 -875 -19 6zm415 -96l0 0 580 580 0 -162 -417 -417c-29,-2 -58,-4 -85,-4 -25,0 -51,1 -77,4zm580 94l0 0 -51 -16c-60,-19 -118,-35 -174,-47l226 226 0 -162zm-852 -43l0 0 826 826c8,-12 14,-21 17,-26l9 -17 0 -93 -722 -722c-42,8 -86,19 -131,31z"/>
 </g>
</svg>
