<?xml version="1.0" encoding="UTF-8"?>
<!DOCTYPE svg PUBLIC "-//W3C//DTD SVG 1.1//EN" "http://www.w3.org/Graphics/SVG/1.1/DTD/svg11.dtd">
<!-- Creator: CorelDRAW X6 -->
<svg xmlns="http://www.w3.org/2000/svg" xml:space="preserve" width="29.9991mm" height="21.4934mm" version="1.1" style="shape-rendering:geometricPrecision; text-rendering:geometricPrecision; image-rendering:optimizeQuality; fill-rule:evenodd; clip-rule:evenodd"
viewBox="0 0 908 651"
 xmlns:xlink="http://www.w3.org/1999/xlink">
 <defs>
  <style type="text/css">
   <![CDATA[
    .fil0 {fill:#BDBFC1}
   ]]>
  </style>
 </defs>
 <g id="Camada_x0020_1">
  <metadata id="CorelCorpID_0Corel-Layer"/>
  <path class="fil0" d="M908 434c0,-110 -76,-199 -169,-199 -9,0 -19,1 -28,3 -7,-91 -72,-162 -151,-162 -25,0 -48,7 -69,19 -30,-57 -83,-95 -144,-95 -93,0 -169,89 -169,199 0,3 0,5 0,8 -99,5 -178,101 -178,219 0,121 83,219 186,219 1,0 1,0 2,0 155,18 506,-8 524,-8 11,-1 20,-2 30,-3 93,-1 168,-90 168,-199z"/>
 </g>
</svg>
