<?xml version="1.0" encoding="UTF-8"?>
<!DOCTYPE svg PUBLIC "-//W3C//DTD SVG 1.1//EN" "http://www.w3.org/Graphics/SVG/1.1/DTD/svg11.dtd">
<!-- Creator: CorelDRAW X6 -->
<svg xmlns="http://www.w3.org/2000/svg" xml:space="preserve" width="29.9999mm" height="29.9998mm" version="1.1" style="shape-rendering:geometricPrecision; text-rendering:geometricPrecision; image-rendering:optimizeQuality; fill-rule:evenodd; clip-rule:evenodd"
viewBox="0 0 493 493"
 xmlns:xlink="http://www.w3.org/1999/xlink">
 <defs>
  <style type="text/css">
   <![CDATA[
    .fil0 {fill:#BDBFC1}
   ]]>
  </style>
 </defs>
 <g id="Camada_x0020_1">
  <metadata id="CorelCorpID_0Corel-Layer"/>
  <g id="_1056027104">
   <path class="fil0" d="M348 57l-230 230 89 89 230 -230 -89 -89zm134 61l-106 -106c-15,-15 -39,-15 -54,0l-240 240 25 25 242 -242 110 110 -242 242 25 25 240 -240c15,-15 15,-39 0,-54z"/>
   <polygon class="fil0" points="216,422 70,277 80,268 225,413 "/>
   <path class="fil0" d="M57 431l6 6 11 -11 -6 -6c-1,-1 -1,-3 0,-4l35 -35c1,-1 3,-1 4,0l6 6 11 -11 -6 -6c-1,-1 -1,-3 0,-4l11 -11 -45 -45 -84 84 45 45 8 -8c1,-1 3,-1 4,0zm75 -72l-9 9 6 6c0,0 1,1 1,2 0,1 0,1 -1,2l-15 15c0,0 -1,1 -2,1 -1,0 -1,0 -2,-1l-6 -6 -31 31 6 6c0,0 1,1 1,2 0,1 0,1 -1,2l-15 15c0,0 -1,1 -2,1 -1,0 -1,0 -2,-1l-6 -6 -6 6 50 50 84 -84 -50 -50z"/>
   <polygon class="fil0" points="77,380 59,363 73,349 91,366 "/>
   <polygon class="fil0" points="131,435 114,417 128,403 145,421 "/>
  </g>
 </g>
</svg>
