<?xml version="1.0" encoding="UTF-8"?>
<!DOCTYPE svg PUBLIC "-//W3C//DTD SVG 1.1//EN" "http://www.w3.org/Graphics/SVG/1.1/DTD/svg11.dtd">
<!-- Creator: CorelDRAW X6 -->
<svg xmlns="http://www.w3.org/2000/svg" xml:space="preserve" width="30mm" height="29.0166mm" version="1.1" style="shape-rendering:geometricPrecision; text-rendering:geometricPrecision; image-rendering:optimizeQuality; fill-rule:evenodd; clip-rule:evenodd"
viewBox="0 0 1657 1603"
 xmlns:xlink="http://www.w3.org/1999/xlink">
 <defs>
  <style type="text/css">
   <![CDATA[
    .fil0 {fill:#BDBFC1}
   ]]>
  </style>
 </defs>
 <g id="Camada_x0020_1">
  <metadata id="CorelCorpID_0Corel-Layer"/>
  <g id="_890595184">
   <path class="fil0" d="M14 665c-25,-38 -16,-90 21,-116l0 0 748 -534c28,-20 64,-20 92,0l0 0 748 534c37,26 46,78 21,116l0 0c-25,38 -76,48 -112,21l0 0 -702 -501 -702 501 0 0c-14,10 -30,15 -46,15l0 0c-26,0 -51,-13 -67,-36l0 0z"/>
   <path class="fil0" d="M1420 1603l-440 0 0 -501 -302 0 0 501 -440 0 0 -912 583 -408 599 407 0 912zm-374 -69l308 0 0 -806 -533 -362 -517 362 0 807 308 0 0 -501 434 0 0 501z"/>
  </g>
 </g>
</svg>
