<?xml version="1.0" encoding="UTF-8"?>
<!DOCTYPE svg PUBLIC "-//W3C//DTD SVG 1.1//EN" "http://www.w3.org/Graphics/SVG/1.1/DTD/svg11.dtd">
<!-- Creator: CorelDRAW X6 -->
<svg xmlns="http://www.w3.org/2000/svg" xml:space="preserve" width="27.366mm" height="29.9998mm" version="1.1" style="shape-rendering:geometricPrecision; text-rendering:geometricPrecision; image-rendering:optimizeQuality; fill-rule:evenodd; clip-rule:evenodd"
viewBox="0 0 2757 3023"
 xmlns:xlink="http://www.w3.org/1999/xlink">
 <defs>
  <style type="text/css">
   <![CDATA[
    .fil0 {fill:#D2D3D5}
   ]]>
  </style>
 </defs>
 <g id="Camada_x0020_1">
  <metadata id="CorelCorpID_0Corel-Layer"/>
  <g id="_827928128">
   <path class="fil0" d="M1380 1611c119,0 230,-55 230,-55 280,-130 481,-481 481,-834 0,-444 -319,-722 -712,-722 -393,0 -712,277 -712,722 0,353 201,705 481,834 0,0 115,55 232,55z"/>
   <path class="fil0" d="M2735 2533c-83,-403 -218,-716 -946,-785l-289 1274c882,-11 1257,-125 1257,-125 -6,-43 -13,-323 -22,-364z"/>
   <path class="fil0" d="M18 2554c-7,35 -13,308 -18,344 0,0 321,117 1257,125l-290 -1275c-746,70 -869,392 -949,806z"/>
   <path class="fil0" d="M1379 1775c-84,0 -152,-18 -152,-18l70 169 163 0 70 -169c0,0 -60,18 -152,18z"/>
   <polygon class="fil0" points="1525,2313 1459,2030 1302,2030 1232,2324 1379,2995 "/>
   <polygon class="fil0" points="2323,2563 1835,2563 1835,2439 2125,2439 2323,2439 "/>
  </g>
 </g>
</svg>
