<?xml version="1.0" encoding="UTF-8"?>
<!DOCTYPE svg PUBLIC "-//W3C//DTD SVG 1.1//EN" "http://www.w3.org/Graphics/SVG/1.1/DTD/svg11.dtd">
<!-- Creator: CorelDRAW X6 -->
<svg xmlns="http://www.w3.org/2000/svg" xml:space="preserve" width="34.9998mm" height="30mm" version="1.1" style="shape-rendering:geometricPrecision; text-rendering:geometricPrecision; image-rendering:optimizeQuality; fill-rule:evenodd; clip-rule:evenodd"
viewBox="0 0 716 614"
 xmlns:xlink="http://www.w3.org/1999/xlink">
 <defs>
  <style type="text/css">
   <![CDATA[
    .fil0 {fill:#BEBEBE}
   ]]>
  </style>
 </defs>
 <g id="Camada_x0020_1">
  <metadata id="CorelCorpID_0Corel-Layer"/>
  <g id="_1053269856">
   <g>
    <path class="fil0" d="M358 392c-70,0 -127,-58 -127,-129 0,-71 57,-129 127,-129 70,0 127,58 127,129 0,71 -57,129 -127,129zm0 -291c-174,0 -258,163 -258,163 0,0 94,163 258,163 165,0 258,-163 258,-163 0,0 -85,-163 -258,-163z"/>
    <path class="fil0" d="M358 207c-31,0 -56,25 -56,57 0,31 25,57 56,57 31,0 56,-25 56,-57 0,-31 -25,-57 -56,-57z"/>
   </g>
   <path class="fil0" d="M665 0c28,0 51,20 51,45l0 438c0,25 -23,45 -51,45l-614 0c-28,0 -51,-20 -51,-45l0 -438c0,-25 23,-45 51,-45l614 0zm0 31l-614 0c-8,0 -15,6 -15,13l0 438c0,7 7,13 15,13l614 0c8,0 15,-6 15,-13l0 -438c0,-7 -7,-13 -15,-13l0 0z"/>
   <polygon class="fil0" points="530,614 186,614 186,585 530,585 "/>
   <polygon class="fil0" points="436,596 280,596 280,541 436,541 "/>
  </g>
 </g>
</svg>
